<svg style="display:none" xmlns="http://www.w3.org/2000/svg"><defs><g id="book"><path stroke="#449FDB" d="M0 0"/><path d="M28 4v26h-21c-1.657 0-3-1.343-3-3s1.343-3 3-3h19v-24h-20c-2.2 0-4 1.8-4 4v24c0 2.2 1.8 4 4 4h24v-28h-2zm-20 22h18v2h-18z"/></g><g id="calendar"><path stroke="#449FDB" d="M0 0"/><path d="M27.2 4.8h-1.44v3.2h-5.12v-3.2h-9.28v3.2h-5.12v-3.2h-1.44c-1.76 0-3.2 1.44-3.2 3.2v19.2c0 1.76 1.44 3.2 3.2 3.2h22.4c1.76 0 3.2-1.44 3.2-3.2v-19.2c0-1.76-1.44-3.2-3.2-3.2zm0 22.4h-22.4v-12.8h22.4v12.8zm-17.28-25.6h-2.24v5.44h2.24v-5.44zm14.4 0h-2.24v5.44h2.24v-5.44z"/></g><g id="close"><path stroke="#449FDB" d="M0 0"/><path d="M31.708 25.708l-9.708-9.708 9.708-9.708c.105-.105.18-.227.229-.357.133-.356.057-.771-.229-1.057l-4.586-4.586c-.286-.286-.702-.361-1.057-.229-.13.048-.252.124-.357.228l-9.708 9.708-9.708-9.708c-.105-.104-.227-.18-.357-.228-.356-.133-.771-.057-1.057.229l-4.586 4.586c-.286.286-.361.702-.229 1.057.049.13.124.252.229.357l9.708 9.708-9.708 9.708c-.104.105-.18.227-.229.357-.133.355-.057.771.229 1.057l4.586 4.586c.286.286.702.361 1.057.229.13-.049.252-.124.357-.229l9.708-9.708 9.708 9.708c.105.105.227.18.357.229.356.133.771.057 1.057-.229l4.586-4.586c.286-.286.362-.702.229-1.057-.049-.13-.124-.252-.229-.357z"/></g><g id="folder"><path stroke="#449FDB" d="M0 0"/><path d="M0 10h32l-2 20h-28l-2-20zm29-4l1 2h-28l2-4h11l1 2h13z"/></g><g id="folder-open"><path stroke="#449FDB" d="M0 0"/><path d="M26 30l6-16h-26l-6 16zm-22-18l-4 18v-26h9l4 4h13v4z"/></g><g id="gift"><path stroke="#449FDB" d="M0 0"/><path d="M24.11 10c.566-.402 1.11-.851 1.608-1.348 1.044-1.044 1.742-2.328 1.966-3.616.246-1.412-.115-2.723-.988-3.597-.697-.697-1.641-1.065-2.73-1.065-1.551 0-3.185.744-4.483 2.043-2.077 2.077-3.288 4.945-3.94 6.991-.482-2.056-1.444-4.833-3.313-6.702-1.003-1.003-2.285-1.518-3.495-1.518-.989 0-1.931.344-2.633 1.046-1.562 1.562-1.351 4.306.471 6.128.65.65 1.409 1.189 2.21 1.638h-6.782v8h2v14h24v-14h2v-8h-5.89zm-3.037-5.993c.866-.866 1.948-1.384 2.892-1.384.334 0 .803.07 1.139.406.813.813.357 2.697-.977 4.031-1.373 1.373-3.221 2.318-4.826 2.939h-1.584c.58-1.798 1.627-4.264 3.356-5.993zm-13.763 1.021c-.022-.285-.002-.82.381-1.203.32-.32.743-.387 1.042-.387.664 0 1.358.313 1.904.859 1.059 1.058 1.93 2.743 2.521 4.871l.047.171-.171-.047c-2.128-.591-3.813-1.462-4.871-2.521-.495-.495-.805-1.13-.853-1.743zm6.69 24.972h-8v-13h8v13zm0-14h-10v-4h10v4zm12 14h-8v-13h8v13zm2-14h-10v-4h10v4z"/></g><g id="home"><path stroke="#449FDB" d="M0 0"/><path d="M32 18.451l-16-12.42-16 12.42v-5.064l16-12.42 16 12.42zm-4-.451v12h-8v-8h-8v8h-8v-12l12-9z"/></g><g id="home2"><path stroke="#449FDB" d="M0 0"/><path d="M32 19l-6-6v-9h-4v5l-6-6-16 16v1h4v10h10v-6h4v6h10v-10h4z"/></g><g id="home3"><path stroke="#449FDB" d="M0 0"/><path d="M16 2l-16 16 3 3 3-3 2 12h6v-6h4v6h6l2-12 3 3 3-3-16-16zm0 12.828c-1.562 0-2.829-1.266-2.829-2.828s1.266-2.828 2.829-2.828c1.562 0 2.828 1.266 2.828 2.828s-1.266 2.828-2.828 2.828z"/></g><g id="users"><path stroke="#449FDB" d="M0 0"/><path d="M22.969 25.168c-.592-.093-.606-1.708-.606-1.708s1.74-1.708 2.119-4.005c1.02 0 1.65-2.442.63-3.301.043-.904 1.311-7.099-5.112-7.099s-5.155 6.195-5.112 7.099c-1.02.859-.39 3.301.63 3.301.379 2.297 2.12 4.005 2.12 4.005s-.014 1.615-.606 1.708c-1.908.301-9.031 3.416-9.031 6.832h24c0-3.416-7.124-6.531-9.031-6.832zm-12.217.545c1.378-.848 3.051-1.635 4.423-2.107-.492-.701-1.04-1.654-1.385-2.783-.481-.393-.873-.954-1.125-1.644-.252-.691-.348-1.464-.269-2.178.056-.512.202-.99.427-1.409-.136-1.456-.232-4.314 1.639-6.398.725-.808 1.642-1.389 2.741-1.74-.196-2.024-1.224-4.399-5.202-4.399-6.424 0-5.155 6.195-5.112 7.099-1.02.859-.39 3.301.63 3.301.379 2.297 2.12 4.005 2.12 4.005s-.014 1.615-.606 1.708c-1.908.301-9.031 3.416-9.031 6.832h10.3l.452-.287z"/></g></defs></svg>