<svg style="display:none" xmlns="http://www.w3.org/2000/svg"><defs><g id="CRIcon"><path fill="#B15D2F" d="M306 97c-170 0-306 136-306 306s136 306 306 306 306-136 306-306-136-306-306-306zm68 316.2l61.2 61.2c6.8 6.8 6.8 13.6 0 20.4l-37.4 37.4c-6.8 6.8-13.6 6.8-20.4 0l-61.2-61.2c-6.8-6.8-13.6-6.8-20.4 0l-61.2 61.2c-6.8 6.8-13.6 6.8-20.4 0l-37.4-37.4c-6.8-6.8-6.8-13.6 0-20.4l61.2-61.2c6.8-6.8 6.8-13.6 0-20.4l-61.2-61.2c-6.8-6.8-6.8-13.6 0-20.4l37.4-37.4c6.8-6.8 13.6-6.8 20.4 0l61.2 61.2c6.8 6.8 13.6 6.8 20.4 0l61.2-61.2c6.8-6.8 13.6-6.8 20.4 0l37.4 37.4c6.8 6.8 6.8 13.6 0 20.4l-61.2 61.2c-6.8 6.8-6.8 13.6 0 20.4z"/></g><g id="abouticon"><path d="M341.3 352.9h-76.7c-6.6 0-12 5.4-12 12v226.1c0 6.6 5.4 12 12 12h76.7c6.6 0 12-5.4 12-12v-226.1c0-6.6-5.4-12-12-12z" fill="none"/><path fill="#B15D2F" d="M306 90.3c-170 0-306 136-306 306s136 306 306 306 306-136 306-306-136-306-306-306zm47.3 500.7c0 6.6-5.4 12-12 12h-76.7c-6.6 0-12-5.4-12-12v-226.1c0-6.6 5.4-12 12-12h76.7c6.6 0 12 5.4 12 12v226.1zm-47.3-272.9c-34 0-64.6-27.2-64.6-64.6 0-34 27.2-64.6 64.6-64.6 37.4 0 64.6 27.2 64.6 64.6 0 34-30.6 64.6-64.6 64.6z"/></g><g id="admin"><path fill="#B15D2F" d="M297.5 98.7c94.2-3 171.5 36.9 219.7 85 46.1 46.1 90.3 116.8 90.7 214 .5 94.7-38.2 164.4-87.9 214-50.8 50.8-124.7 88.9-212.6 89.2-91.2.5-163.4-37.1-214-87.7s-88.8-119.5-89.3-212.6c-.4-93.6 38.3-163.4 85.1-211.1 23.6-24 50.1-44.5 86.5-62.4 32.1-15.8 77.1-26.9 121.8-28.4zm77.9 168.7c15.1-57.1-28.4-94.1-75.1-93.5-48.1.6-86.5 41.2-70.9 96.4-10.3 5.3-12.3 18.9-11.4 35.4 4.9 8.3 10.6 15.9 19.9 19.9-.2 20 9.7 30.1 17 42.5-2 7.7-2.6 23.6 0 31.1-20.2 11-43.7 19.9-69.5 29.8-19.4 7.5-54.6 17.7-63.7 36.9-12.8 26.7-1.6 68.7-5.6 109.1 120.9 3.3 248 .5 371.3 1.4 3.1-14.4.6-34.3 1.4-51-21.3 16.2-80.4 12-70.9-32.6-12.4 4.7-14.2 15.1-26.9 17-26 3.9-51.3-23.6-46.8-48.2 1.9-10.3 11-13.9 15.6-24.1-58.3 15.3-58.4-85.4-5.6-76.5-1.3-11.1-12.8-14.6-14.1-28.4-2.5-24 19.5-44.9 45.4-45.4 0-10-7.7-12.3-10.1-19.8zm52.5 51c-7.7 1.3-12.9 5-19.9 7.1-10.3-4.4-13-20.5-26.9-21.2-11.6-.6-26.7 13.4-25.5 25.5 1.3 13.1 18.9 14.6 22.6 28.4-3.6 5.9-4.5 14.4-8.5 19.9-33.6-11.2-46.9 20.9-31.1 41.1 9 2.9 22.8.8 34 1.4 2.2 8.3 6.1 14.7 9.9 21.2-6 8.7-23.3 15.1-22.6 28.4.5 9.7 16.8 23.6 26.9 22.6 14.1-1.3 15.7-19.7 29.8-24.1 3.9 5 13.1 4.8 18.4 8.5-6.4 30.7 7.9 47.6 36.9 38.3 8.7-7.3 4.9-27.3 5.6-42.5 6.3-2.6 11.3-6.6 18.4-8.5 11 3.9 14.6 23.7 29.8 24.1 10.2.2 26.2-14.5 25.5-25.5-.8-14.9-22.6-17.7-26.9-32.6 1.5-5.6 3.5-10.7 5.6-15.6 32.7 8.3 56.6-10.8 42.5-36.9-6-11-28.4-7.3-44-5.6-3.3-5.2-4.6-12.4-8.5-17 4-11.6 26-15.8 25.5-32.6-.3-9.6-14.5-24.8-25.5-24.1-14.5.9-16.7 21.2-31.1 25.5-5.6-2.4-12.8-3.3-17-7.1-.5-13.7 2.1-30.4-4.2-38.2-30.7-12.4-46.7 4.8-39.7 39.5zm14.1 48.2c8.1-1.7 14.8-2.3 21.2 0 17.8 6.3 27.5 42.4 5.6 56.7-20 13.1-60.8.4-49.6-38.2 2-6.6 9.6-15.7 22.8-18.5z"/></g><g id="dropdown_arrow"><path fill="#4C4C4D" d="M432 823.3l-401.8-367.2 114.5-123.1 287.3 263.5 287.3-263.6 114.5 123.1-401.8 367.3z"/></g><g id="engage"><path fill="#B05C2F" d="M499.9 8c-271.2 0-491.1 216.5-491.1 483.6s219.9 483.5 491.1 483.5 491.1-216.5 491.1-483.5-219.9-483.6-491.1-483.6zm-208.7 506.2c-13.5 0-148.5-6-148.5-175.5l147-175.5 151.5 3c10.5 1.5 183-15 181.5 184.5s-201 166.5-201 166.5l-124.6 124.5s7.5-127.5-5.9-127.5zm406.3 228.4v126l-122.9-123.5s-172.6 12.4-196.6-113.8l64.5-66.1s193.5 34.4 228-172.5c0 0 182.9-13.5 181.4 181.4-1.1 157.8-127 170.3-154.4 168.5z"/></g><g id="give"><path fill="#B05C2F" d="M1012.5 506c0-267-219.9-483.5-491.1-483.5s-491.1 216.4-491.1 483.5 219.9 483.5 491.1 483.5c138.6 0 263.7-56.5 353-147.4l-140.3-87.1c-21 0-319.9 0-344-1.3-25.3-1.3-37.5-11.7-38-12.2l-.1-.1-237.2-231-.1-.9c-3.3-21.5-.1-38.2 9.7-49.6 12-14 30.9-17 44.7-17 7.2 0 12.1.8 12.3.9l.7.1 181.9 165.1 294.5 2.5c3.1-2.8 4.7-5.9 4.9-9.4.4-6.7-4.1-10.2-6.2-12.8l-7.8-.8h-.3l-240.2 2.6-.7-.6c-18.2-14.4-27.3-30.2-26.9-46.8.7-28.4 28.4-48.6 29.6-49.5l.7-.5h.8l326.1 3.9 56.9 52.7-.1-.5 178.5 144.6c24.9-57.9 38.7-121.6 38.7-188.4zm-477.7-77.6c-251.4-182.6-119.6-259.5-119.6-259.5 68.5-32.4 123.1 35 123.1 35 62.4-81.9 132.6-26.5 132.6-26.5 92.8 105.9-136.1 251-136.1 251z"/></g><g id="grow"><path fill="#B05C2F" d="M165 0c-91.1 0-165 73.9-165 165s73.9 165 165 165 165-73.9 165-165-73.9-165-165-165zm-1.8 161.5s-15.7 23-7.8 103.2c-.6 8.4-18.5 20.7-27.5 1.1 8.4-47.7-6.2-78.5-6.2-78.5-8.4 15.7-48.7 11-57.7-16.3-14-42-40.4-39.8-40.4-39.8 30.8-20.7 74-23 97 1.7s6.2 46.5 6.2 46.5c6.7 4.5 13.5 29.7 13.5 29.7 3.4-26.9 17.9-55.5 17.9-55.5-.1-.1-.1-.2-.2-.2s45.7-63 99.7-38.7c0 0-49.1-36.5-104 29.9-8.8-26.4 5.6-72.1 62.8-70.6 64.5 1.7 93.1 71.2 93.1 71.2-62.9-33.1-82 64.5-146.4 16.3z"/></g><g id="media"><path fill="#B05C2F" d="M493 2.5c-271.2 0-491.1 216.4-491.1 483.5s219.9 483.5 491.1 483.5 491.1-216.5 491.1-483.5-219.9-483.5-491.1-483.5zm288.5 767.9c-37.1 37.1-80.4 66.3-128.6 86.7-49.9 21.1-102.9 31.8-157.5 31.8-54.6 0-107.6-10.7-157.5-31.8-48.2-20.4-91.4-49.5-128.6-86.7-37.1-37.1-66.3-80.4-86.7-128.6-21-49.9-31.7-102.8-31.7-157.4 0-54.6 10.7-107.6 31.8-157.5 20.4-48.2 49.5-91.4 86.7-128.6 37.1-37.1 80.4-66.3 128.6-86.7 49.9-21.1 102.9-31.8 157.5-31.8 54.6 0 107.6 10.7 157.5 31.8 48.2 20.4 91.4 49.5 128.6 86.7s66.3 80.4 86.7 128.6c21.1 49.9 31.8 102.9 31.8 157.5 0 54.6-10.7 107.6-31.8 157.5-20.5 48.1-49.7 91.3-86.8 128.5zm-31.1-541c-68.1-68.1-158.6-105.6-255-105.6s-186.9 37.5-255 105.6-105.6 158.6-105.6 255 37.5 186.9 105.6 255 158.6 105.6 255 105.6 186.9-37.5 255-105.6 105.6-158.6 105.6-255-37.5-186.9-105.6-255zm-348.7 467.5l-.6-442.5 291 219.3-290.4 223.2z"/></g><g id="question"><path fill="#B15D2F" d="M432 241.4c-238.5 0-431.9 193.2-431.9 431.8s193.4 431.9 431.9 431.9 431.9-193.4 431.9-431.9-193.5-431.8-431.9-431.8zm35.4 736.5h-85v-85.7h85v85.7zm105.3-354.4c-19.3 29.4-45 59.6-76.9 90.2-14.8 14.8-23.9 28.2-27 40-3.2 11.9-4.8 30.4-4.8 55.3h-80.8v-.1c.3-39.8 3.7-67.5 10.3-83 6.6-15.4 23.9-35.7 52-61 27.2-32.2 46.6-56.9 58-74.1 11.6-17.2 17.2-38.1 17.2-62.7 0-29.1-7.8-51.5-23.3-67.2-15.5-15.7-37.7-23.6-66.6-23.6-25 0-46.4 6.8-64 20.5-17.5 13.6-26.4 33.6-26.4 60h-77.5l-1.3-2.4c-.8-44.3 14.8-79.8 46.7-106.3 32-26.7 72.8-40 122.3-40 54.1 0 96.3 13.8 126.2 41.5s44.9 66.2 44.9 115.6c.1 35.5-9.6 68-29 97.3z"/></g><g id="search"><path fill="#969492" d="M593.4 577.4l-153.2-133.4c-7.4-6.6-16.4-10.5-25.6-11.7 12.6-26.5 19.6-56 19.6-87.2 0-112.5-91.5-204-204-204s-204 91.5-204 204 91.5 204 204 204c44.9 0 86.5-14.6 120.3-39.3 2.7 7.8 7.4 14.9 14 20.7l153.2 133.5c20.1 17.8 51.6 15.9 69.4-4.6l11-12.5c17.7-20.2 15.8-51.6-4.7-69.5zm-551.3-232.4c0-103.7 84.4-188 188-188s188 84.4 188 188c0 31.8-8 61.9-22 88.2-9.5 2.3-18.5 7.4-25.4 15.3l-11 12.5c-7.8 8.7-11.8 19.6-12.2 30.6-32.2 25.9-73.1 41.4-117.5 41.4-103.5 0-187.9-84.3-187.9-188z"/></g><g id="user"><path fill="#366E8E" d="M566.1 668.5h-520.2c-9.7 0-17.5-7.8-17.5-17.5 0-43 21.4-84.8 60.4-117.9 33.4-28.3 78.5-49.3 128.3-59.8v-21.2c-17.1-16.8-30.9-38.7-41.1-65.3-17.8-8.7-35.4-37.3-35.4-69.9 0-34.2 9.4-68.7 27.4-81.3 6.7-34.4 18.5-59.2 36.7-77.4 23.4-23.4 56.5-34.8 101.3-34.8 45.4 0 80.1 12.1 103.1 35.9 16.9 17.5 27.5 40.7 32.2 70.8 7.1 2.1 15.4 7.7 21.3 21 5.9 13.5 8.8 34.2 8.8 63.1 0 33.9-17.9 61.3-36 67.9-10.6 29.4-26.8 53.8-48.1 72.8v15.5c52.3 10.5 99.4 31.6 133.9 60.1 19.6 16.2 34.9 34.4 45.5 54.2 11.3 21 17 43.2 17 66.1-.1 9.9-7.9 17.7-17.6 17.7zm-501.1-35h482c-3.9-22-16.2-49.4-48.2-75.8-33-27.3-79.8-46.9-131.8-55.2-8.5-1.4-14.8-8.7-14.8-17.3v-38.2c0-5.3 2.4-10.3 6.6-13.7 22.5-18 38.5-43.3 47.7-75.3 2.2-7.8 9.5-13 17.5-12.7.9 0 1.9.2 2.8.3 4.2-5.6 9.6-16.4 9.6-31.3 0-31.9-3.8-44.7-6-49.4-1.3.3-2.8.6-4.6.6-9.1 0-16.7-7-17.4-16-2.5-29.8-10.5-51.3-24.5-65.8-16.4-17-41.9-25.3-77.9-25.3-75 0-96.2 36.9-105.1 92.4-1.2 7.3-6.7 12.9-13.7 14.4-3.7 4.5-11.6 22.2-11.6 51.7 0 18 8.1 30.7 13 36.1h.1c7.5 0 14.2 4.8 16.6 12 9.6 28.7 23.3 51 40.8 66.3 3.8 3.3 6 8.1 6 13.2v43.3c0 8.6-6.2 15.9-14.6 17.3-49.4 8.2-94.2 27.7-126.1 54.7-30.6 26-42.5 52.4-46.4 73.7z"/></g><g id="user_filled"><path fill="#366E8E" d="M392.7 490.8v-40.6c27.1-21.7 46-51.5 56.9-89.4 2.7 13.5 32.5-10.8 32.5-51.5 0-89.4-27.1-70.4-29.8-70.4-5.4-65-35.2-113.8-127.3-113.8-89.4 0-119.2 46-130 113.8-13.5 0-27.1 32.5-27.1 73.1s29.8 65 32.5 56.9c10.8 32.5 27.1 59.6 48.8 78.5v46c-113.8 19-200.4 89.4-200.4 173.3h552.5c0-86.5-89.4-156.9-208.6-175.9z"/></g><g id="user_hover"><path fill="#AF5E31" d="M566.1 668.5h-520.2c-9.7 0-17.5-7.8-17.5-17.5 0-43 21.4-84.8 60.4-117.9 33.4-28.3 78.5-49.3 128.3-59.8v-21.2c-17.1-16.8-30.9-38.7-41.1-65.3-17.8-8.7-35.4-37.3-35.4-69.9 0-34.2 9.4-68.7 27.4-81.3 6.7-34.4 18.5-59.2 36.7-77.4 23.4-23.4 56.5-34.8 101.3-34.8 45.4 0 80.1 12.1 103.1 35.9 16.9 17.5 27.5 40.7 32.2 70.8 7.1 2.1 15.4 7.7 21.3 21 5.9 13.5 8.8 34.2 8.8 63.1 0 33.9-17.9 61.3-36 67.9-10.6 29.4-26.8 53.8-48.1 72.8v15.5c52.3 10.5 99.4 31.6 133.9 60.1 19.6 16.2 34.9 34.4 45.5 54.2 11.3 21 17 43.2 17 66.1-.1 9.9-7.9 17.7-17.6 17.7zm-501.1-35h482c-3.9-22-16.2-49.4-48.2-75.8-33-27.3-79.8-46.9-131.8-55.2-8.5-1.4-14.8-8.7-14.8-17.3v-38.2c0-5.3 2.4-10.3 6.6-13.7 22.5-18 38.5-43.3 47.7-75.3 2.2-7.8 9.5-13 17.5-12.7.9 0 1.9.2 2.8.3 4.2-5.6 9.6-16.4 9.6-31.3 0-31.9-3.8-44.7-6-49.4-1.3.3-2.8.6-4.6.6-9.1 0-16.7-7-17.4-16-2.5-29.8-10.5-51.3-24.5-65.8-16.4-17-41.9-25.3-77.9-25.3-75 0-96.2 36.9-105.1 92.4-1.2 7.3-6.7 12.9-13.7 14.4-3.7 4.5-11.6 22.2-11.6 51.7 0 18 8.1 30.7 13 36.1h.1c7.5 0 14.2 4.8 16.6 12 9.6 28.7 23.3 51 40.8 66.3 3.8 3.3 6 8.1 6 13.2v43.3c0 8.6-6.2 15.9-14.6 17.3-49.4 8.2-94.2 27.7-126.1 54.7-30.6 26-42.5 52.4-46.4 73.7z"/></g></defs></svg>