<svg style="display:none" xmlns="http://www.w3.org/2000/svg"><defs><g id="arrow-right9"><path d="M13.7 7.226c.67.653 7.204 7.514 7.204 7.514.358.35.536.805.536 1.26s-.178.913-.536 1.262c0 0-6.534 6.86-7.203 7.512-.668.653-1.87.698-2.585 0-.714-.696-.77-1.667 0-2.52L17.112 16 11.117 9.75c-.77-.854-.714-1.826 0-2.522.714-.696 1.917-.653 2.584 0z"/></g><g id="book"><path stroke="#449FDB" d="M0 0"/><path d="M28 4v26H7c-1.657 0-3-1.343-3-3s1.343-3 3-3h19V0H6C3.8 0 2 1.8 2 4v24c0 2.2 1.8 4 4 4h24V4h-2zM8 26h18v2H8z"/></g><g id="bubble"><path d="M16 2c8.837 0 16 5.82 16 13s-7.163 13-16 13c-.85 0-1.682-.054-2.495-.158C10.068 31.28 5.965 31.895 2 31.986v-.84c2.142-1.05 4-2.962 4-5.146 0-.305-.024-.604-.068-.897C2.312 22.72 0 19.08 0 15 0 7.82 7.163 2 16 2z"/></g><g id="calendar"><path stroke="#449FDB" d="M0 0"/><path d="M27.2 4.8h-1.44V8h-5.12V4.8h-9.28V8H6.24V4.8H4.8C3.04 4.8 1.6 6.24 1.6 8v19.2c0 1.76 1.44 3.2 3.2 3.2h22.4c1.76 0 3.2-1.44 3.2-3.2V8c0-1.76-1.44-3.2-3.2-3.2zm0 22.4H4.8V14.4h22.4v12.8zM9.92 1.6H7.68v5.44h2.24V1.6zm14.4 0h-2.24v5.44h2.24V1.6z"/></g><g id="checkmark"><path d="M27 4L12 19l-7-7-5 5 12 12L32 9z"/></g><g id="close"><path stroke="#449FDB" d="M0 0"/><path d="M31.708 25.708L22 16l9.708-9.708c.105-.105.18-.227.23-.357.132-.356.056-.77-.23-1.057L27.122.292c-.286-.286-.702-.36-1.057-.23-.13.05-.252.125-.357.23L16 9.998 6.292.29C6.187.188 6.065.11 5.935.064c-.356-.133-.77-.057-1.057.23L.292 4.877c-.286.286-.36.702-.23 1.057.05.13.125.252.23.357L10 16 .292 25.708c-.104.105-.18.227-.23.357-.132.355-.056.77.23 1.057l4.586 4.586c.286.286.702.36 1.057.23.13-.05.252-.125.357-.23L16 22l9.708 9.708c.105.105.227.18.357.23.356.132.77.056 1.057-.23l4.586-4.586c.286-.286.362-.702.23-1.057-.05-.13-.125-.252-.23-.357z"/></g><g id="cr"></g><g id="crossroads"><path stroke="#449FDB" d="M0 0"/><path d="M16 0C7.1 0 0 7.1 0 16s7.1 16 16 16 16-7.1 16-16S24.9 0 16 0zm3.6 16.6l3.2 3.2c.4.4.4.7 0 1.1l-2 2c-.4.4-.7.4-1.1 0l-3.2-3.2c-.4-.4-.7-.4-1.1 0l-3.2 3.2c-.4.4-.7.4-1.1 0l-2-2c-.4-.4-.4-.7 0-1.1l3.2-3.2c.4-.4.4-.7 0-1.1l-3.2-3.2c-.4-.4-.4-.7 0-1.1l2-2c.4-.4.7-.4 1.1 0l3.2 3.2c.4.4.7.4 1.1 0l3.2-3.2c.4-.4.7-.4 1.1 0l2 2c.4.4.4.7 0 1.1l-3.2 3.2c-.4.3-.4.7 0 1.1z"/></g><g id="folder"><path stroke="#449FDB" d="M0 0"/><path d="M0 10h32l-2 20H2L0 10zm29-4l1 2H2l2-4h11l1 2h13z"/></g><g id="folder-open"><path stroke="#449FDB" d="M0 0"/><path d="M26 30l6-16H6L0 30zM4 12L0 30V4h9l4 4h13v4z"/></g><g id="gift"><path stroke="#449FDB" d="M0 0"/><path d="M24.11 10c.566-.402 1.11-.85 1.608-1.348 1.044-1.044 1.742-2.328 1.966-3.616.246-1.412-.115-2.723-.988-3.597C26 .74 25.056.373 23.966.373c-1.55 0-3.185.744-4.483 2.043-2.077 2.077-3.288 4.945-3.94 6.99-.482-2.055-1.444-4.832-3.313-6.7-1.003-1.004-2.285-1.52-3.495-1.52-.99 0-1.93.345-2.633 1.047-1.562 1.562-1.35 4.306.47 6.128.65.65 1.41 1.19 2.21 1.638h-6.78v8h2v14h24V18h2v-8h-5.89zm-3.037-5.993c.866-.866 1.948-1.384 2.892-1.384.334 0 .803.07 1.14.406.812.812.356 2.696-.978 4.03-1.373 1.373-3.22 2.318-4.826 2.94h-1.583c.58-1.8 1.627-4.265 3.356-5.994zM7.31 5.027c-.022-.284-.002-.82.38-1.202.32-.32.744-.387 1.043-.387.664 0 1.358.313 1.904.86 1.06 1.057 1.93 2.742 2.52 4.87l.048.17c-.057-.014-.114-.03-.17-.046-2.13-.59-3.814-1.462-4.872-2.52-.495-.496-.805-1.13-.853-1.744zM14 30H6V17h8v13zm0-14H4v-4h10v4zm12 14h-8V17h8v13zm2-14H18v-4h10v4z"/></g><g id="home"><path stroke="#449FDB" d="M0 0"/><path d="M32 18.45L16 6.03 0 18.45v-5.063L16 .967l16 12.42zM28 18v12h-8v-8h-8v8H4V18l12-9z"/></g><g id="home2"><path stroke="#449FDB" d="M0 0"/><path d="M32 19l-6-6V4h-4v5l-6-6L0 19v1h4v10h10v-6h4v6h10V20h4z"/></g><g id="home3"><path stroke="#449FDB" d="M0 0"/><path d="M16 2L0 18l3 3 3-3 2 12h6v-6h4v6h6l2-12 3 3 3-3L16 2zm0 12.828c-1.562 0-2.83-1.266-2.83-2.828S14.438 9.172 16 9.172c1.562 0 2.828 1.266 2.828 2.828S17.562 14.828 16 14.828z"/></g><g id="pencil4"><path d="M26.498 5.5c-2.307-2.308-4.04-1.962-4.04-1.962L5.136 20.86 3.52 28.48l7.62-1.615 17.32-17.32s.348-1.733-1.962-4.043zM10.686 25.948l-2.597.56c-.252-.47-.555-.938-1.107-1.49-.552-.553-1.022-.854-1.49-1.105l.56-2.598.75-.75s1.415.03 3.01 1.624c1.598 1.597 1.627 3.01 1.627 3.01l-.754.75z"/></g><g id="question-circle"><path d="M16 24.57v-3.428q0-.25-.16-.41t-.412-.162h-3.43q-.25 0-.41.16t-.16.412v3.43q0 .25.16.41t.41.16h3.43q.25 0 .41-.16t.162-.41zm4.57-12q0-1.57-.99-2.91t-2.473-2.07-3.036-.733q-4.338 0-6.624 3.804-.268.43.143.75l2.356 1.787q.125.107.34.107.285 0 .445-.214.947-1.214 1.537-1.643.607-.43 1.536-.43.857 0 1.527.465t.67 1.054q0 .68-.357 1.09t-1.214.803q-1.126.5-2.064 1.544t-.938 2.24v.644q0 .25.16.41t.412.162h3.43q.25 0 .41-.16t.16-.412q0-.34.385-.884t.973-.884q.57-.32.875-.51t.82-.624.796-.857.5-1.08.222-1.447zM27.43 16q0 3.732-1.84 6.884t-4.99 4.99-6.885 1.84-6.884-1.84-4.99-4.99T0 16t1.84-6.884 4.99-4.99 6.885-1.84 6.884 1.84 4.99 4.99T27.43 16z"/></g><g id="search3"><path d="M28.072 24.75l-6.046-6.047c.912-1.5 1.437-3.256 1.437-5.14 0-5.465-4.738-10.202-10.205-10.202-5.466 0-9.898 4.433-9.898 9.9 0 5.466 4.736 10.204 10.203 10.204 1.818 0 3.52-.493 4.984-1.35l6.078 6.08c.597.596 1.56.596 2.154 0l1.508-1.506c.594-.595.378-1.344-.216-1.938zM6.406 13.257c0-3.784 3.067-6.853 6.85-6.853 3.787 0 7.16 3.373 7.16 7.158s-3.068 6.853-6.854 6.853-7.157-3.373-7.157-7.158z"/></g><g id="trash"><path d="M5.422 12.66l1.763 15.533c.094.738 3.656 3.163 8.814 3.166 5.157-.004 8.72-2.43 8.815-3.167l1.763-15.534c-2.694 1.506-6.722 2.22-10.58 2.22s-7.884-.714-10.577-2.22zm15.645-9.6l-1.374-1.526C19.163.78 18.587.64 17.466.64h-2.93c-1.12 0-1.697.14-2.228.894L10.935 3.06C6.823 3.776 3.84 5.682 3.84 7.087v.274c0 2.474 5.444 4.48 12.16 4.48s12.16-2.006 12.16-4.48v-.274c0-1.405-2.98-3.31-7.092-4.03zM19.31 6.62L17.307 4.48h-2.614L12.69 6.622H9.97s2.98-3.552 3.378-4.034c.304-.368.616-.51 1.02-.51h3.268c.403 0 .714.142 1.02.51.396.482 3.377 4.034 3.377 4.034H19.31z"/></g><g id="users"><path stroke="#449FDB" d="M0 0"/><path d="M22.97 25.168c-.593-.093-.607-1.708-.607-1.708s1.74-1.708 2.12-4.005c1.02 0 1.65-2.442.63-3.3.042-.905 1.31-7.1-5.113-7.1s-5.155 6.195-5.112 7.1c-1.02.858-.39 3.3.63 3.3.38 2.297 2.12 4.005 2.12 4.005s-.014 1.615-.606 1.708c-1.908.3-9.03 3.416-9.03 6.832h24c0-3.416-7.125-6.53-9.032-6.832zm-12.218.545c1.378-.848 3.05-1.635 4.423-2.107-.492-.7-1.04-1.654-1.385-2.783-.48-.393-.873-.954-1.125-1.644-.252-.692-.348-1.465-.27-2.18.057-.51.203-.99.428-1.408-.136-1.456-.232-4.314 1.64-6.398.724-.808 1.64-1.39 2.74-1.74-.196-2.024-1.224-4.4-5.202-4.4-6.423 0-5.154 6.196-5.11 7.1-1.02.86-.39 3.3.63 3.3.378 2.298 2.12 4.006 2.12 4.006s-.015 1.615-.607 1.708c-1.908.3-9.03 3.416-9.03 6.832h10.3c.146-.096.296-.192.45-.287z"/></g></defs></svg>