<?xml version="1.0" encoding="utf-8"?>
<!-- Generator: Adobe Illustrator 17.1.0, SVG Export Plug-In . SVG Version: 6.00 Build 0)  -->
<!DOCTYPE svg PUBLIC "-//W3C//DTD SVG 1.1//EN" "http://www.w3.org/Graphics/SVG/1.1/DTD/svg11.dtd">
<svg version="1.1" id="Layer_1" xmlns="http://www.w3.org/2000/svg" xmlns:xlink="http://www.w3.org/1999/xlink" x="0px" y="0px"
	 viewBox="0 0 18 18" enable-background="new 0 0 18 18" xml:space="preserve">
<g>
	<path fill="#B15D2F" d="M9,0C4,0,0,4,0,9c0,5,4,9,9,9c5,0,9-4,9-9C18,4,14,0,9,0z M10.5,14.5c0,0.1,0,0.3-0.1,0.3L10.2,15
		c-0.1,0-0.2,0.1-0.3,0.1H8.1c-0.1,0-0.3,0-0.3-0.1l-0.2-0.2c0-0.1-0.1-0.2-0.1-0.3V8.3c0-0.1,0-0.3,0.1-0.3l0.2-0.2
		c0.1,0,0.2-0.1,0.3-0.1h1.7c0.1,0,0.3,0,0.3,0.1l0.2,0.2c0,0.1,0.1,0.2,0.1,0.3V14.5z M9,6.7c-1,0-1.9-0.8-1.9-1.9
		c0-1,0.8-1.9,1.9-1.9s1.9,0.8,1.9,1.9C10.9,5.8,10,6.7,9,6.7z"/>
</g>
</svg>
