<?xml version="1.0" encoding="utf-8"?>
<!-- Generator: Adobe Illustrator 18.0.0, SVG Export Plug-In . SVG Version: 6.00 Build 0)  -->
<!DOCTYPE svg PUBLIC "-//W3C//DTD SVG 1.1//EN" "http://www.w3.org/Graphics/SVG/1.1/DTD/svg11.dtd">
<svg version="1.1" id="Layer_1" xmlns="http://www.w3.org/2000/svg" xmlns:xlink="http://www.w3.org/1999/xlink" x="0px" y="0px"
	 viewBox="0 0 612 792" enable-background="new 0 0 612 792" xml:space="preserve">
<path fill="none" d="M306,90C136,90,0,226,0,396s136,306,306,306s306-136,306-306S476,90,306,90z M357,583c0,3.4,0,10.2-3.4,10.2
	l-6.8,6.8c-3.4,0-6.8,3.4-10.2,3.4h-61.2c-3.4,0-10.2,0-10.2-3.4l-6.8-6.8c0-3.4-3.4-6.8-3.4-10.2V372.2c0-3.4,0-10.2,3.4-10.2
	l6.8-6.8c3.4,0,6.8-3.4,10.2-3.4h57.8c3.4,0,10.2,0,10.2,3.4l6.8,6.8c0,3.4,3.4,6.8,3.4,10.2V583H357z M306,317.8
	c-34,0-64.6-27.2-64.6-64.6c0-34,27.2-64.6,64.6-64.6s64.6,27.2,64.6,64.6C370.6,287.2,340,317.8,306,317.8z"/>
</svg>
