<?xml version="1.0" encoding="utf-8"?>
<!-- Generator: Adobe Illustrator 18.0.0, SVG Export Plug-In . SVG Version: 6.00 Build 0)  -->
<!DOCTYPE svg PUBLIC "-//W3C//DTD SVG 1.1//EN" "http://www.w3.org/Graphics/SVG/1.1/DTD/svg11.dtd">
<svg version="1.1" id="Layer_1" xmlns="http://www.w3.org/2000/svg" xmlns:xlink="http://www.w3.org/1999/xlink" x="0px" y="0px"
	 viewBox="0 86 612 620.7" enable-background="new 0 86 612 620.7" xml:space="preserve">
<g>
	<path fill="none" d="M341.3,352.9h-76.7c-6.6,0-12,5.4-12,12V591c0,6.6,5.4,12,12,12h76.7c6.6,0,12-5.4,12-12V364.9
		C353.3,358.3,347.9,352.9,341.3,352.9z"/>
	<path fill="#B15D2F" d="M306,90.3c-170,0-306,136-306,306s136,306,306,306s306-136,306-306S476,90.3,306,90.3z M353.3,591
		c0,6.6-5.4,12-12,12h-76.7c-6.6,0-12-5.4-12-12V364.9c0-6.6,5.4-12,12-12h76.7c6.6,0,12,5.4,12,12V591z M306,318.1
		c-34,0-64.6-27.2-64.6-64.6c0-34,27.2-64.6,64.6-64.6c37.4,0,64.6,27.2,64.6,64.6C370.6,287.5,340,318.1,306,318.1z"/>
</g>
</svg>
