<?xml version="1.0" encoding="utf-8"?>
<!-- Generator: Adobe Illustrator 18.0.0, SVG Export Plug-In . SVG Version: 6.00 Build 0)  -->
<!DOCTYPE svg PUBLIC "-//W3C//DTD SVG 1.1//EN" "http://www.w3.org/Graphics/SVG/1.1/DTD/svg11.dtd">
<svg version="1.1" id="Layer_1" xmlns="http://www.w3.org/2000/svg" xmlns:xlink="http://www.w3.org/1999/xlink" x="0px" y="0px"
	 viewBox="0 94.5 612 610.5" enable-background="new 0 94.5 612 610.5" xml:space="preserve">
<path fill="#B15D2F" d="M297.5,98.7c94.2-3,171.5,36.9,219.7,85c46.1,46.1,90.3,116.8,90.7,214c0.5,94.7-38.2,164.4-87.9,214
	c-50.8,50.8-124.7,88.9-212.6,89.2c-91.2,0.5-163.4-37.1-214-87.7S4.6,493.7,4.1,400.6C3.7,307,42.4,237.2,89.2,189.5
	c23.6-24,50.1-44.5,86.5-62.4C207.8,111.3,252.8,100.2,297.5,98.7z M375.4,267.4c15.1-57.1-28.4-94.1-75.1-93.5
	c-48.1,0.6-86.5,41.2-70.9,96.4c-10.3,5.3-12.3,18.9-11.4,35.4c4.9,8.3,10.6,15.9,19.9,19.9c-0.2,20,9.7,30.1,17,42.5
	c-2,7.7-2.6,23.6,0,31.1c-20.2,11-43.7,19.9-69.5,29.8c-19.4,7.5-54.6,17.7-63.7,36.9c-12.8,26.7-1.6,68.7-5.6,109.1
	c120.9,3.3,248,0.5,371.3,1.4c3.1-14.4,0.6-34.3,1.4-51c-21.3,16.2-80.4,12-70.9-32.6c-12.4,4.7-14.2,15.1-26.9,17
	c-26,3.9-51.3-23.6-46.8-48.2c1.9-10.3,11-13.9,15.6-24.1c-58.3,15.3-58.4-85.4-5.6-76.5c-1.3-11.1-12.8-14.6-14.1-28.4
	c-2.5-24,19.5-44.9,45.4-45.4C385.5,277.2,377.8,274.9,375.4,267.4z M427.9,318.4c-7.7,1.3-12.9,5-19.9,7.1
	c-10.3-4.4-13-20.5-26.9-21.2c-11.6-0.6-26.7,13.4-25.5,25.5c1.3,13.1,18.9,14.6,22.6,28.4c-3.6,5.9-4.5,14.4-8.5,19.9
	c-33.6-11.2-46.9,20.9-31.1,41.1c9,2.9,22.8,0.8,34,1.4c2.2,8.3,6.1,14.7,9.9,21.2c-6,8.7-23.3,15.1-22.6,28.4
	c0.5,9.7,16.8,23.6,26.9,22.6c14.1-1.3,15.7-19.7,29.8-24.1c3.9,5,13.1,4.8,18.4,8.5c-6.4,30.7,7.9,47.6,36.9,38.3
	c8.7-7.3,4.9-27.3,5.6-42.5c6.3-2.6,11.3-6.6,18.4-8.5c11,3.9,14.6,23.7,29.8,24.1c10.2,0.2,26.2-14.5,25.5-25.5
	c-0.8-14.9-22.6-17.7-26.9-32.6c1.5-5.6,3.5-10.7,5.6-15.6c32.7,8.3,56.6-10.8,42.5-36.9c-6-11-28.4-7.3-44-5.6
	c-3.3-5.2-4.6-12.4-8.5-17c4-11.6,26-15.8,25.5-32.6c-0.3-9.6-14.5-24.8-25.5-24.1c-14.5,0.9-16.7,21.2-31.1,25.5
	c-5.6-2.4-12.8-3.3-17-7.1c-0.5-13.7,2.1-30.4-4.2-38.2C436.9,266.5,420.9,283.7,427.9,318.4z M442,366.6c8.1-1.7,14.8-2.3,21.2,0
	c17.8,6.3,27.5,42.4,5.6,56.7c-20,13.1-60.8,0.4-49.6-38.2C421.2,378.5,428.8,369.4,442,366.6z"/>
</svg>
