<?xml version="1.0" encoding="utf-8"?>
<!-- Generator: Adobe Illustrator 18.0.0, SVG Export Plug-In . SVG Version: 6.00 Build 0)  -->
<!DOCTYPE svg PUBLIC "-//W3C//DTD SVG 1.1//EN" "http://www.w3.org/Graphics/SVG/1.1/DTD/svg11.dtd">
<svg version="1.1" id="Layer_1" xmlns="http://www.w3.org/2000/svg" xmlns:xlink="http://www.w3.org/1999/xlink" x="0px" y="0px"
	 viewBox="0 0 792 789.1" enable-background="new 0 0 792 789.1" xml:space="preserve">
<path fill="none" d="M384.1,4.6c121.9-3.9,222,47.8,284.3,110c59.6,59.6,116.8,151.2,117.4,276.9c0.6,122.6-49.5,212.7-113.7,276.9
	c-65.7,65.7-161.4,115-275.1,115.5C279,784.6,185.5,735.9,120,670.4C54.5,604.9,5,515.7,4.4,395.3C3.9,274.1,54,183.8,114.5,122
	c30.5-31.1,64.9-57.6,111.9-80.7C268,20.8,326.3,6.5,384.1,4.6z M484.9,222.9c19.6-73.9-36.8-121.8-97.2-121
	c-62.3,0.8-111.9,53.3-91.7,124.7c-13.3,6.8-15.9,24.5-14.7,45.8c6.3,10.8,13.7,20.6,25.7,25.7c-0.2,25.9,12.5,38.9,22,55
	c-2.6,10-3.3,30.5,0,40.3c-26.2,14.3-56.5,25.7-89.9,38.5c-25.1,9.7-70.6,22.9-82.5,47.7c-16.6,34.5-2.1,88.9-7.3,141.2
	c156.5,4.3,320.9,0.6,480.5,1.8c4-18.6,0.8-44.4,1.8-66c-27.6,21-104.1,15.5-91.7-42.2c-16,6.1-18.4,19.6-34.8,22
	c-33.6,5-66.4-30.5-60.5-62.4c2.4-13.3,14.2-18,20.2-31.2c-75.5,19.8-75.6-110.5-7.3-99c-1.7-14.4-16.5-18.9-18.3-36.7
	c-3.2-31,25.3-58.1,58.7-58.7C498,235.5,488,232.6,484.9,222.9z M552.8,288.9c-9.9,1.7-16.7,6.5-25.7,9.2
	c-13.3-5.7-16.8-26.5-34.8-27.5c-15-0.8-34.5,17.4-33,33c1.7,17,24.5,18.9,29.3,36.7c-4.6,7.6-5.8,18.6-11,25.7
	c-43.5-14.5-60.7,27.1-40.3,53.2c11.6,3.7,29.5,1,44,1.8c2.8,10.7,7.9,19,12.8,27.5c-7.8,11.3-30.2,19.5-29.3,36.7
	c0.7,12.6,21.8,30.5,34.8,29.3c18.2-1.7,20.3-25.5,38.5-31.2c5.1,6.5,17,6.2,23.8,11c-8.3,39.7,10.2,61.6,47.7,49.5
	c11.3-9.4,6.3-35.3,7.3-55c8.2-3.4,14.6-8.6,23.8-11c14.2,5,18.9,30.7,38.5,31.2c13.2,0.3,33.9-18.7,33-33
	c-1.1-19.3-29.2-22.9-34.8-42.2c1.9-7.3,4.5-13.9,7.3-20.2c42.3,10.8,73.3-14,55-47.7c-7.7-14.2-36.8-9.4-56.9-7.3
	c-4.3-6.7-5.9-16.1-11-22c5.2-15,33.6-20.5,33-42.2c-0.4-12.4-18.8-32.1-33-31.2c-18.7,1.2-21.6,27.5-40.3,33
	c-7.2-3.1-16.5-4.3-22-9.2c-0.6-17.7,2.7-39.4-5.5-49.5C564.5,221.7,543.8,244,552.8,288.9z M571.1,351.3c10.5-2.2,19.1-3,27.5,0
	c23.1,8.2,35.6,54.9,7.3,73.4c-25.9,16.9-78.7,0.5-64.2-49.5C544.2,366.6,554,354.8,571.1,351.3z"/>
</svg>
