<?xml version="1.0" encoding="utf-8"?>
<!-- Generator: Adobe Illustrator 16.0.4, SVG Export Plug-In . SVG Version: 6.00 Build 0)  -->
<!DOCTYPE svg PUBLIC "-//W3C//DTD SVG 1.1//EN" "http://www.w3.org/Graphics/SVG/1.1/DTD/svg11.dtd">
<svg version="1.1" xmlns="http://www.w3.org/2000/svg" xmlns:xlink="http://www.w3.org/1999/xlink" x="0px" y="0px" width="2048px"
	 height="2176px" viewBox="0 0 2048 2176" enable-background="new 0 0 2048 2176" xml:space="preserve">
<g id="Face_1" display="none">
	<path display="inline" fill="#2D2D2D" d="M2008.503,1967.761c-58.31-131.106-342.898-217.868-531.994-299.319
		c-189.082-81.451-163.251-130.838-170.049-198.379c-1.162-11.597-1.831-24.111-2.149-36.877
		c57.514-58.146,102.605-137.396,134.7-220.23c0,0,1.802-4.496,2.324-5.869c7.239-19.243,13.689-39.322,19.208-59.786
		c43.344-8.552,68.595-54.568,78.25-97.121c9.738-17.221,30.004-59.67,25.355-107.847c-4.683-48.467-21.38-76.513-42.205-92.194
		c3.029-22.252,4.741-42.134,4.741-59.193c0-85.571,34.291-348.442-58.716-445.18c-49.315-51.292-96.541-104.663-163.31-144.055
		l7.251-28.993l-72.092-1.835c-1.87-0.697-3.812-1.336-5.705-1.999l9.553-36.302l-64.226,20.068l20.057-50.176l-98.597,40.182
		c-11.213-0.767-22.741-1.312-34.733-1.51c-143.991-2.394-268.118,52.302-356.5,129.786c-30.538,14.792-84.223,40.287-84.223,40.287
		l20.184,27.528c-1.231,1.604-2.476,3.207-3.684,4.811l-74.718,29.888l41.414,24.46c-0.929,1.987-1.847,3.986-2.741,6.02
		l-64.748,51.814l48.026-6.856c-45.272,143.161-48.026,351.974-48.026,370.16c0,2.632,0.837,10.034,2.324,21.009
		c-28.479,12.189-53.694,40.845-59.623,102.28c-4.654,48.177,15.611,90.626,25.355,107.847
		c9.818,43.285,35.784,90.171,80.521,97.539c5.561,20.567,12.072,40.752,19.405,60.169c0.477,1.255,0.977,2.499,1.482,3.742
		l0.667,1.673c32.807,84.473,79.148,165.257,138.383,223.636c-0.353,11.457-1.003,22.658-2.055,33.123
		c-6.792,67.541,13.085,116.928-176.008,198.379c-189.089,81.451-473.672,168.213-531.994,299.319
		C-18.708,2098.859,4.599,2176,4.599,2176h2038.718C2043.317,2176,2066.824,2098.859,2008.503,1967.761z"/>
</g>
<g id="Face_2" display="none">
	<path display="inline" fill="#2D2D2D" d="M2008.503,1967.761c-58.311-131.104-342.899-217.866-531.994-299.318
		c-189.084-81.451-163.252-130.837-170.05-198.379c-0.134-1.337-0.25-2.708-0.372-4.073
		c67.815-19.661,178.857-64.579,236.331-150.08c81.307-120.978,59.495-277.646,64.527-360.243
		c5.043-82.59,9.005-269.321-26.541-413.112c-35.546-143.793-80.783-277.893-164.844-352.329
		c-84.072-74.436-151.132-69.146-191.965-57.125c-3.277-12.16-12.085-32.005-35.604-41.414
		c-35.209-14.078-224.665-54.926-403.476,39.724c-178.823,94.649-253.518,284.136-298.487,458.11
		c-44.97,173.972-68.071,363.467-26.424,579.632c36.754,190.769,203.188,258.653,289.514,280.895
		c-0.369,6.873-0.863,13.584-1.508,20.016c-6.792,67.542,13.084,116.928-176.005,198.379
		c-189.089,81.452-473.673,168.214-531.995,299.318C-18.706,2098.859,4.599,2176,4.599,2176h2038.718
		C2043.316,2176,2066.824,2098.859,2008.503,1967.761z"/>
	<path display="inline" fill="#2D2D2D" d="M749.864,1398.884c0.023,1.487,0.046,2.975,0.064,4.474
		c-0.686-2.045-1.342-4.078-1.923-6.083C748.618,1397.826,749.248,1398.338,749.864,1398.884z"/>
</g>
<g id="Face_3" display="none">
	<path display="inline" fill="#2D2D2D" d="M1998.889,1969.794c-57.74-129.824-339.552-215.739-526.8-296.395
		c-187.236-80.656-161.657-129.56-168.389-196.442c-1.882-18.709-2.468-39.814-2.348-60.502
		c54.755-45.435,101.943-100.638,131.067-175.794c0,0,1.783-4.453,2.302-5.811c7.168-19.055,10.194-74.298,15.66-94.562
		c42.932-8.469,67.935-54.035,77.486-96.172c9.653-17.053,29.722-59.087,25.106-106.794c-5.926-61.4-31.298-89.798-59.822-101.662
		c0.046-3.693,0.069-7.204,0.069-10.644c0-10.788-0.174-21.546-0.449-32.288c8.089-56.774,15.085-112.961,15.085-145.05
		c0-41.925-9.044-124.98-37.523-201.247l0.542,0.483l-37.397-79.758l-6.547-32.11l-32.104-9.061
		c-1.737-1.56-3.532-3.021-5.316-4.511c3.913-7.796-27.454-30.588-0.472-39.75c-11.553-16.095-68.579-6.795-68.579-6.795
		s-8.562-55.41-22.427-62.826c-7.227,10.14-35.706,7.019-59.029,5.212c-88.257-11.596-33.761-86.712-124.676-95.103
		c0.38-35.567-0.379-64.101-0.379-64.101s-46.246,38.708-63.264,23.566c-10.402-35.763,13.899-80.685,13.899-80.685
		s-66.635,0.748-82.48,67.015c-13.992-19.147,2.209-48.604,13.256-63.333c-84.505,28.6-111.569,92.171-145.33,132.813
		c-4.477,5.402-16.869-18.845-15.327-33.772c-32.944,15.442-53.034,104.432-67.82,110.766
		c-14.786,6.334-45.083-18.908-47.247-29.008c-31.01,2.166-104.066,151.54-104.066,151.54l-71.963,71.963
		c0,0,36.408-2.712,38.249,10.425c1.841,13.138-53.402,110.775-53.402,110.775s29.906-17.177,33.001-7.33
		c3.096,9.847-0.586,3.32-0.874,4.988l-43.496,115.971l30.367-11.68c-3.67,42.379-5.408,83.921-5.408,121.444
		c0,36.022,1.415,63.885,3.625,86.588c-24.636,13.958-45.371,42.437-50.653,97.163c-4.602,47.707,15.465,89.741,25.108,106.794
		c9.724,42.862,35.44,89.292,79.742,96.587c5.5,20.367,14.498,70.231,21.758,89.453c0.473,1.249,0.967,2.474,1.462,3.706
		l0.667,1.657c29.578,76.158,74.857,131.499,128.87,177.146c0.221,21.892-0.317,44.433-2.313,64.293
		c-6.725,66.882,12.957,115.786-174.286,196.442c-187.242,80.656-469.047,166.571-526.799,296.395
		C-8.523,2099.613,14.554,2176,14.554,2176h2018.81C2033.363,2176,2056.641,2099.613,1998.889,1969.794z"/>
</g>
<g id="Face_4" display="none">
	<path display="inline" fill="#2D2D2D" d="M2008.503,1967.76c-58.311-131.105-342.901-217.867-531.996-299.319
		c-189.078-81.452-163.247-130.838-170.045-198.38c-1.568-15.6-2.242-32.845-2.359-50.142
		c57.312-54.353,104.314-125.341,135.672-206.258c0,0,1.801-4.503,2.324-5.874c7.24-19.243,13.689-39.311,19.209-59.774
		c43.349-8.564,68.6-54.58,78.244-97.133c9.749-17.221,30.015-59.669,25.355-107.847c-5.984-62.005-31.607-90.672-60.414-102.664
		c0.047-3.73,0.07-7.274,0.07-10.749c0-15.606-0.378-31.154-0.965-46.655c9.075-61.715,5.793-146.502-17.303-232.741
		c36.883,19.045,71.965,13.822,142.521-6.792c84.271-24.623,26.809,106.017,176.604,89.139
		c-104.466-29.608-27.784-205.393-164.704-235.896c-112.101-24.978-157.6,68.024-170.417,102.56
		c-58.292-160.632-190.942-311.462-446.808-311.462c-254.018,0-387.194,151.04-445.702,311.706
		c-12.684-34.332-58.13-127.839-170.521-102.804c-136.909,30.503-60.239,206.288-164.693,235.896
		c149.785,16.878,92.323-113.762,176.592-89.139c70.628,20.637,105.715,25.843,142.626,6.74
		c-24.983,92.886-26.761,184.023-14.171,246.366c-0.296,11.004-0.482,22.032-0.482,33.083c0,3.208,0.023,6.473,0.058,9.877
		c-29.678,11.446-56.451,39.973-62.586,103.536c-4.648,48.178,15.617,90.626,25.355,107.847
		c9.819,43.297,35.791,90.173,80.528,97.54c5.554,20.568,12.073,40.764,19.405,60.169c0.477,1.267,0.976,2.499,1.476,3.742
		l0.674,1.679c31.796,81.876,79.607,153.642,137.906,208.199c-0.163,16.53-0.848,32.943-2.347,47.852
		c-6.792,67.542,13.084,116.928-176.005,198.38c-189.09,81.452-473.674,168.214-531.996,299.319
		C-18.706,2098.859,4.599,2176,4.599,2176h2038.718C2043.316,2176,2066.824,2098.859,2008.503,1967.76z"/>
</g>
<g id="Face_5" display="none">
	<path display="inline" fill="#2D2D2D" d="M2008.502,1967.761c-58.31-131.105-342.899-217.867-531.994-299.318
		c-189.084-81.452-163.252-130.837-170.05-198.379c-0.831-8.262-1.411-16.995-1.79-25.942
		c56.004-47.364,107.156-105.191,134.342-175.348c0,0,1.801-4.497,2.324-5.868c7.238-19.243,13.688-69.07,19.207-89.533
		c43.355-8.553,68.605-54.568,78.251-97.122c9.749-17.221,30.015-59.669,25.354-107.847c-5.984-62.005-31.606-90.684-60.412-102.665
		c0.034-2.963,0.046-5.74,0.058-8.529c5.665-59.995,6.368-133.132-6.81-241.897c-3.126-8.192,6.554-15.896,17.14-24.704
		c-19.336-15.606-25.994-69.756-3.847-117.143c-12.561-3.695-25.111-7.391-37.672-11.086c8.866-5.915,17.732-11.817,26.598-17.732
		c-8.133-4.439-16.256-8.866-24.379-13.305c8.123-1.476,16.246-2.952,24.379-4.427c-12.561-7.391-25.122-14.781-37.684-22.171
		c8.135-2.208,16.257-4.427,24.379-6.647c-46.98-42.03-66.641-62.946-68.71-117.468c-9.599,6.647-19.208,13.293-28.817,19.94
		c-5.206-39.846-10.715-31.688-22.16-75.357c-4.439,7.391-8.866,14.781-13.305,22.16
		c-88.883-137.42-177.894-134.515-296.791-176.267c30.549,36.499,20.498,52.396-4.439,48.758
		c-175.847-58.751-186.107,87.732-296.999,68.71c1.476,14.781,2.952,29.55,4.427,44.331c-11.817-4.427-23.635-8.866-35.465-13.293
		c2.22,8.123,4.439,16.245,6.647,24.379c-14.769-1.476-29.55-2.952-44.331-4.439c5.915,11.829,11.83,23.647,17.732,35.465
		c-14.037-3.695-28.074-7.379-42.111-11.074c5.171,13.293,10.342,26.587,15.513,39.892c-19.94-3.695-39.892-7.391-59.844-11.085
		c17.732,15.513,35.465,31.037,53.197,46.55c-14.037-0.744-28.075-1.476-42.112-2.22c8.866,10.342,17.732,20.684,26.599,31.038
		c-135.933,24.414-129.379,299.092-108.37,471.988c-0.058,4.962-0.174,9.912-0.174,14.885c0,3.207,0.023,6.473,0.058,9.877
		c-29.678,11.446-56.451,39.973-62.586,103.536c-4.648,48.177,15.618,90.625,25.355,107.847c9.819,43.285,35.79,90.172,80.528,97.54
		c5.554,20.568,12.073,64.55,19.406,83.967c0.476,1.255,0.976,2.499,1.476,3.742l0.674,1.673
		c27.136,69.866,80.624,129.925,138.187,178.91c-0.377,9.662-0.976,19.092-1.871,27.981
		c-6.792,67.542,13.084,116.928-176.005,198.379S97.932,1836.656,39.61,1967.761C-18.706,2098.859,4.599,2176,4.599,2176h2038.718
		C2043.316,2176,2066.824,2098.859,2008.502,1967.761z"/>
</g>
<g id="Face_6" display="none">
	<path display="inline" fill="#2D2D2D" d="M2008.502,1967.761c-58.31-131.104-342.898-217.866-531.994-299.317
		c-186.486-80.336-163.943-129.489-169.812-195.62c100.724,14.194,263.069,2.58,345.909-188.979c0,0-163.855,87.65-163.855-36.871
		c0-85.339,155.664-247.521,155.664-523.907c0-276.374-249.056-556.688-616.95-556.688c-367.894,0-604.806,296.257-604.806,588.585
		c0,292.317,218.064,480.343,109.032,538.27c0,0-64.736,37.476-136.293-17.047c0,0,86.268,219.424,352.666,188.927
		c-0.145,1.662-0.291,3.323-0.453,4.95c-6.792,67.542,13.084,116.928-176.005,198.38
		c-189.089,81.451-473.673,168.213-531.995,299.317C-18.706,2098.86,4.599,2176,4.599,2176h2038.718
		C2043.316,2176,2066.824,2098.86,2008.502,1967.761z"/>
</g>
<g id="Face_7" display="none">
	<path display="inline" fill="#2D2D2D" d="M2008.503,1967.76c-58.311-131.105-342.901-217.867-531.996-299.319
		c-189.078-81.452-163.247-130.838-170.045-198.38c-0.977-9.732-1.604-20.115-1.97-30.741
		c56.782-54.208,103.38-124.766,134.521-205.132c0,0,1.802-4.497,2.324-5.868c7.239-19.243,13.688-39.323,19.208-59.786
		c43.344-8.553,68.594-54.568,78.244-97.122c9.744-17.221,30.01-59.67,25.355-107.847c-5.984-62.005-31.612-90.684-60.419-102.665
		c0.012-0.883,0.006-1.673,0.018-2.533c17.953-59.612,35.069-120.908,37.185-217.146c1.68-76.368-21.335-136.271-63.992-200.228
		c-5.973-8.947-211.14-275.724-212.191-285.868c-6.461,13.41,2.139,72.185-38.119,59.925c5.072,1.545,26.191-32.118,6.036-71.418
		c-9.767,35.128-34.14,56.614-73.126,64.458c17.262-15.385,28.83-34.384,34.703-57.021c-18.801,20.696-43.18,28.539-73.131,23.542
		c-0.709-19.859,6.315-37.626,21.078-53.29c-22.438,15.188-47.643,23.449-75.611,24.786c-6.055-22.601-4.398-44.912,4.955-66.932
		c-25.273,29.992-56.677,51.884-94.205,65.689c-14.357-19.65-14.357-41.96,0-66.933c-17.564,29.945-39.457,56.381-65.689,79.331
		c-7.995-17.721-12.957-36.313-14.88-55.777c-69.204,119.804-197.404,209.326-299.258,302.88
		C468.253,549.503,493.76,703.076,539.293,863.202c-26.732,13.177-49.804,41.96-55.44,100.364
		c-4.654,48.177,15.612,90.626,25.355,107.847c9.819,43.285,35.785,90.172,80.522,97.54c5.56,20.568,12.073,40.752,19.406,60.169
		c0.476,1.255,0.976,2.499,1.481,3.742l0.668,1.673c31.839,81.986,79.75,153.84,138.165,208.432
		c-0.381,9.354-0.973,18.476-1.839,27.093c-6.792,67.542,13.084,116.928-176.005,198.38
		c-189.09,81.452-473.674,168.214-531.996,299.319C-18.706,2098.859,4.599,2176,4.599,2176h2038.718
		C2043.316,2176,2066.824,2098.859,2008.503,1967.76z"/>
</g>
<g id="Face_8" display="none">
	<path display="inline" fill="#2D2D2D" d="M2008.239,1968.039c-58.309-131.104-342.899-217.867-531.995-299.317
		c-189.085-81.452-163.251-130.838-170.049-198.379c-1.762-17.542-2.399-37.163-2.383-56.603
		c41.246-43.286,77.083-97.534,105.488-154.869c35.417-20.114,78.053-31.676,106.434-60.065
		c31.631-31.641,42.344-80.992,67.321-118.304c24.786-37.022,66.405-65.712,83.677-107.358c16.978-40.938,8-90.581,16.806-135.074
		c8.538-43.179,35.991-85.582,35.991-131.272s-27.453-88.081-35.991-131.262c-8.806-44.494,0.172-94.135-16.806-135.073
		c-17.271-41.658-58.891-70.336-83.677-107.358c-24.978-37.313-35.683-86.663-67.321-118.306
		c-31.63-31.63-80.986-42.332-118.291-67.315c-37.029-24.786-65.715-66.409-107.367-83.677
		c-40.936-16.977-90.578-8.006-135.072-16.803c-43.18-8.542-85.578-36-131.267-36c-45.69,0-88.086,27.458-131.267,36
		c-44.495,8.796-94.129-0.174-135.066,16.803c-41.66,17.268-70.338,58.891-107.365,83.677
		c-37.307,24.972-86.665,35.685-118.294,67.315c-31.635,31.631-42.344,80.993-67.321,118.306
		c-24.786,37.021-66.41,65.7-83.683,107.358c-16.978,40.938-8,90.58-16.803,135.073c-8.54,43.181-35.993,85.571-35.993,131.262
		s27.453,88.093,35.993,131.272c8.803,44.493-0.169,94.124,16.803,135.062c17.273,41.658,58.897,70.348,83.683,107.371
		c24.977,37.301,35.686,86.663,67.315,118.292c28.383,28.389,71.017,39.951,106.429,60.065
		c29.795,60.135,67.752,116.94,111.544,161.178c-0.118,17.349-0.792,34.656-2.366,50.305
		c-6.792,67.541,13.083,116.927-176.005,198.379c-189.089,81.451-473.672,168.213-531.995,299.317
		c-58.314,131.099-35.01,208.239-35.01,208.239h2038.72C2043.055,2176.278,2066.561,2099.138,2008.239,1968.039z"/>
</g>
<g id="Face_9" display="none">
	<path display="inline" fill="#2D2D2D" d="M2008.502,1967.761c-58.31-131.104-342.898-217.866-531.994-299.318
		c-189.084-81.452-163.252-130.837-170.05-198.38c-1.807-17.994-2.429-38.172-2.376-58.095
		c56.102-54.022,102.164-124.022,133.027-203.678c0,0,1.801-4.497,2.324-5.868c7.239-19.243,13.688-39.323,19.208-59.786
		c43.343-8.552,68.595-54.568,78.251-97.121c9.737-17.221,30.003-59.67,25.354-107.847c-4.171-43.296-17.953-70.302-35.674-86.768
		c71.058-87.604,118.456-287.646-88.708-389.136c0,0-40.055-288.541-500.085-256.236
		c-335.51,42.855-370.707,287.448-379.353,292.863c-113.785,71.162-121.675,301.508-56.544,372.031
		c-9.854,16.164-17.104,37.951-19.929,67.246c-4.659,48.177,15.606,90.626,25.355,107.847c9.819,43.285,35.779,90.172,80.516,97.54
		c5.566,20.568,12.074,40.752,19.406,60.169c0.477,1.255,0.977,2.498,1.487,3.742l0.663,1.673
		c32.274,83.107,81.088,155.756,140.592,210.615c-0.104,17.523-0.776,35.012-2.364,50.809
		c-6.793,67.542,13.084,116.928-176.005,198.38c-189.09,81.452-473.673,168.213-531.995,299.318
		C-18.706,2098.86,4.599,2176,4.599,2176h2038.718C2043.316,2176,2066.824,2098.86,2008.502,1967.761z"/>
</g>
<g id="Face_10" display="none">
	<path display="inline" fill="#2D2D2D" d="M2008.503,1967.762c-58.311-131.104-342.898-217.866-531.993-299.317
		c-189.083-81.451-163.251-130.837-170.05-198.379c-0.9-8.947-1.498-18.436-1.876-28.161
		c56.741-54.202,103.303-124.725,134.427-205.043c0,0,1.802-4.497,2.324-5.868c7.24-19.243,13.689-39.317,19.209-59.78
		c43.343-8.558,68.594-54.573,78.244-97.127c9.743-17.221,30.009-59.669,25.355-107.846c-5.712-59.164-29.318-87.941-56.492-100.869
		c7.309-17.337,14.072-35.267,19.562-53.086c28.011-90.969,1.406-294.676-44.562-406.972
		c-45.964-112.292-237.859-197.757-298.679-195.242c-52.778,2.179-71.899,25.739-95.477,42.21
		c-3.376-16.965-11.126-32.217-25.854-42.965c-55.614-40.566-230.916-58.664-312.286,3.411
		c-81.373,62.086-100.523,95.732-163.109,184.835c-62.598,89.104-83.038,307.625-76.867,354.194
		c3.817,28.858,15.594,74.775,29.039,114.057c-26.784,13.148-49.914,41.926-55.562,100.428
		c-4.654,48.177,15.612,90.625,25.355,107.846c9.819,43.291,35.784,90.173,80.522,97.54c5.56,20.567,12.073,40.757,19.405,60.169
		c0.477,1.261,0.977,2.498,1.482,3.741l0.668,1.674c31.819,81.934,79.685,153.746,138.047,208.325
		c-0.381,8.454-0.936,16.704-1.723,24.53c-6.792,67.542,13.084,116.928-176.007,198.379
		c-189.089,81.451-473.671,168.213-531.993,299.317C-18.702,2098.86,4.596,2176,4.596,2176h2038.72
		C2043.316,2176,2066.824,2098.86,2008.503,1967.762z"/>
</g>
<g id="Face_11" display="none">
	<path display="inline" fill="#2D2D2D" d="M2008.504,1967.762c-58.311-131.104-342.898-217.866-531.992-299.317
		c-189.09-81.451-163.258-130.837-170.055-198.379c-1.971-19.592-2.533-41.774-2.348-63.399
		c56.955-54.26,103.686-124.963,134.897-205.508c0,0,1.802-4.497,2.324-5.868c7.239-19.242,13.688-39.311,19.208-59.773
		c43.355-8.564,68.605-54.58,78.25-97.133c9.75-17.221,30.015-59.669,25.355-107.847c-4.596-47.596-20.771-75.495-41.072-91.346
		c9.82-42.472,15.055-86.906,15.055-132.667c0-210.37-110.078-392.922-271.371-484.164
		c-4.427-103.605-107.475-186.48-234.035-186.48s-229.62,82.875-234.047,186.48c-161.293,91.241-271.371,273.793-271.371,484.164
		c0,42.367,4.561,83.561,13.003,123.139c-27.162,12.945-50.739,41.728-56.451,100.874c-4.648,48.178,15.618,90.626,25.355,107.847
		c9.819,43.297,35.79,90.172,80.527,97.539c5.554,20.568,12.073,40.764,19.406,60.169c0.476,1.267,0.976,2.499,1.476,3.742
		l0.674,1.673c31.935,82.242,80.042,154.264,138.695,208.913c0.087,20.428-0.52,41.188-2.379,59.646
		c-6.786,67.542,13.084,116.928-175.999,198.379c-189.094,81.451-473.671,168.213-531.993,299.317
		C-18.703,2098.859,4.595,2176,4.595,2176h2038.722C2043.317,2176,2066.824,2098.859,2008.504,1967.762z"/>
</g>
<g id="Face_12" display="none">
	<path display="inline" fill="#2D2D2D" d="M2008.502,1967.761c-58.31-131.104-342.899-217.866-531.994-299.318
		c-189.084-81.451-163.252-130.837-170.05-198.379c-0.413-4.097-0.761-8.314-1.052-12.608
		c40.154-34.825,75.752-77.622,105.162-126.271c117.301,27.522,248.801,25.105,363.752-58.193
		c-183.562-183.57-79.714-427.896-212.172-833.405C1449.41,94.781,987.438,111.752,927.862,232.898
		C682.827,146.34,498.02,262.222,430.025,627.421c-78.239,419.5,27.208,463.575-156.35,647.069
		c127.549,72.916,245.494,63.685,349.843,28.26c32.952,62,75.575,115.911,124.911,157.825c-0.244,3.213-0.508,6.392-0.819,9.488
		c-6.792,67.542,13.084,116.928-176.005,198.379c-189.089,81.452-473.673,168.214-531.995,299.318
		C-18.706,2098.859,4.599,2176,4.599,2176h2038.718C2043.316,2176,2066.824,2098.859,2008.502,1967.761z"/>
</g>
<g id="Face_13" display="none">
	<path display="inline" fill="#2D2D2D" d="M2008.504,1967.768c-58.311-131.11-342.899-217.866-531.994-299.323
		c-189.088-81.445-163.257-130.831-170.055-198.379c-1.074-10.708-1.73-22.188-2.074-33.931
		c57.927-54.521,105.424-126.015,137.025-207.57c0,0,1.801-4.497,2.324-5.88c7.238-19.231,13.688-39.311,19.207-59.774
		c43.35-8.552,68.6-54.567,78.256-97.121c9.738-17.232,30.004-59.669,25.355-107.846c-4.7-48.724-21.55-76.798-42.512-92.438
		c34.709-192.127,2.138-293.095-22.793-404.416c-18.918-84.443,78.83,5.95,78.83,5.95c4.463-77.344-132.568-167.191-159.666-232.217
		c-7.937-19.057,70.063,8.076,70.063,8.076c-242.088-256.282-708.636-78.134-708.636-78.134s-185.039-43.157-219.307-0.36
		c-2.173,2.708,44.808-2.696,62.958,28.76c22.985,39.857-75.368,98.237-75.368,98.237c-83.107,58.635-70.058,102.385-70.058,102.385
		c25.622-28.876,79.667-13.758,79.667-13.758s-112.715,91.357-88.499,139.813c2.475,4.962,61.157-56.439,65.445,20.823
		c5.392,97.261-9.151,151.794,5.938,316.451c-27.127,12.956-50.658,41.739-56.357,100.828
		c-4.66,48.177,15.606,90.613,25.355,107.846c9.819,43.285,35.778,90.161,80.516,97.54c5.566,20.556,12.073,40.752,19.406,60.169
		c0.476,1.255,0.976,2.498,1.487,3.741l0.662,1.674c31.45,80.975,78.587,152.044,136.028,206.385c-0.34,12.033-1,23.81-2.1,34.768
		c-6.792,67.548,13.084,116.934-176.004,198.379c-189.089,81.457-473.672,168.213-531.993,299.323
		C-18.705,2098.866,4.599,2176,4.599,2176h2038.717C2043.316,2176,2066.824,2098.866,2008.504,1967.768z"/>
</g>
<g id="Face_14">
	<path fill="#2D2D2D" d="M2008.502,1967.767c-58.31-131.11-342.899-217.866-531.994-299.323
		c-189.084-81.446-163.252-130.832-170.05-198.38c-0.93-9.262-1.54-19.109-1.911-29.195
		c64.875-55.986,117.968-132.749,152.311-221.37c0,0,1.802-4.497,2.324-5.868c7.24-19.243,13.689-39.312,19.209-59.774
		c43.349-8.564,68.6-54.58,78.25-97.133c9.743-17.222,30.009-59.67,25.355-107.847c-5.984-62.006-31.613-90.673-60.42-102.665
		c0.047-3.729,0.07-7.273,0.07-10.748c0-78.959-7.524-192.558-22.369-267.229c-3.184-20.603-7.948-41.355-14.159-61.703
		c-27.923-91.474-86.298-173.687-164.355-231.497c-80.558-59.658-194.476-91.184-295.675-91.184
		c-101.2,0-215.119,31.525-295.675,91.184c-78.059,57.81-136.433,140.023-164.356,231.497
		c-6.211,20.348-10.975,41.101-14.159,61.703c-14.845,74.648-22.369,188.235-22.369,267.229c0,3.207,0.023,6.473,0.058,9.877
		c-29.678,11.446-56.445,39.974-62.581,103.536c-4.654,48.177,15.612,90.625,25.355,107.847
		c9.819,43.297,35.784,90.172,80.522,97.539c5.56,20.568,12.073,40.764,19.406,60.17c0.476,1.267,0.976,2.498,1.481,3.741
		l0.668,1.674c35.015,90.166,89.484,168.016,155.966,224.182c-0.381,8.982-0.962,17.744-1.795,26.035
		c-6.792,67.548,13.084,116.934-176.005,198.38C382.516,1749.9,97.932,1836.656,39.61,1967.767
		C-18.706,2098.865,4.599,2176,4.599,2176h2038.718C2043.316,2176,2066.824,2098.865,2008.502,1967.767z"/>
</g>
<g id="Face_15" display="none">
	<path display="inline" fill="#2D2D2D" d="M2008.503,1967.768c-58.31-131.11-342.898-217.866-531.993-299.323
		c-189.083-81.445-163.251-130.831-170.049-198.379c-1.174-11.655-1.848-24.24-2.162-37.068
		c59.623-55.864,100.654-132.062,134.713-219.958c0,0,1.801-4.497,2.324-5.868c7.239-19.242,13.688-39.311,19.208-59.773
		c43.354-8.564,68.604-54.58,78.25-97.133c9.749-17.221,30.015-59.669,25.354-107.847c-5.984-62.005-31.606-90.672-60.412-102.664
		c0.046-3.729,0.069-7.273,0.069-10.748c0-78.959-7.53-156.86-22.368-231.531c-3.185-20.603-7.949-41.356-14.166-61.703
		c-17.721-58.043-47.735-112.344-87.232-159.057c2.057-21.184,3.463-58.286-7.936-82.271
		c-16.711-35.186-71.209-48.119-70.488-64.689c3.068-68.71-129.007-44.493-129.564-50.222
		c-8.447-41.147-98.922-49.467-138.931-32.455c-40.011,17.012-55.292,23.414-91.035,20.416
		c-73.428-6.158-163.31,9.89-186.817,89.976c-1.058,3.625-1.917,7.088-2.673,10.492c-22.473,3.847-39.59,23.356-39.59,46.923
		c0,6.786,1.348,11.225,3.765,14.153c-62.737,55.463-109.706,127.612-133.864,206.733c-6.205,20.347-10.969,41.101-14.153,61.703
		c-14.851,74.647-22.369,152.537-22.369,231.531c0,3.207,0.023,6.473,0.058,9.877c-29.678,11.445-56.451,39.974-62.586,103.535
		c-4.648,48.178,15.617,90.626,25.355,107.847c9.819,43.297,35.79,90.172,80.528,97.539c5.554,20.568,12.073,40.764,19.405,60.169
		c0.477,1.267,0.976,2.499,1.476,3.742l0.674,1.673c34.799,89.609,76.748,167.069,138.387,223.159
		c-0.352,11.597-1.005,22.938-2.071,33.519c-6.786,67.548,13.084,116.934-175.999,198.379
		c-189.095,81.457-473.672,168.213-531.993,299.323C-18.702,2098.865,4.596,2176,4.596,2176h2038.72
		C2043.316,2176,2066.824,2098.865,2008.503,1967.768z"/>
</g>
</svg>
