<?xml version="1.0" encoding="utf-8"?>
<!-- Generator: Adobe Illustrator 18.0.0, SVG Export Plug-In . SVG Version: 6.00 Build 0)  -->
<!DOCTYPE svg PUBLIC "-//W3C//DTD SVG 1.1//EN" "http://www.w3.org/Graphics/SVG/1.1/DTD/svg11.dtd">
<svg version="1.1" id="Layer_1" xmlns="http://www.w3.org/2000/svg" xmlns:xlink="http://www.w3.org/1999/xlink" x="0px" y="0px"
	 viewBox="0 0 2048 2176" enable-background="new 0 0 2048 2176" xml:space="preserve">
<g id="Face_1" display="none">
	<path display="inline" fill="#2D2D2D" d="M2008.5,1967.8c-58.3-131.1-342.9-217.9-532-299.3c-189.1-81.5-163.3-130.8-170-198.4
		c-1.2-11.6-1.8-24.1-2.1-36.9c57.5-58.1,102.6-137.4,134.7-220.2c0,0,1.8-4.5,2.3-5.9c7.2-19.2,13.7-39.3,19.2-59.8
		c43.3-8.6,68.6-54.6,78.2-97.1c9.7-17.2,30-59.7,25.4-107.8c-4.7-48.5-21.4-76.5-42.2-92.2c3-22.3,4.7-42.1,4.7-59.2
		c0-85.6,34.3-348.4-58.7-445.2c-49.3-51.3-96.5-104.7-163.3-144.1l7.3-29l-72.1-1.8c-1.9-0.7-3.8-1.3-5.7-2l9.6-36.3l-64.2,20.1
		l20.1-50.2l-98.6,40.2c-11.2-0.8-22.7-1.3-34.7-1.5c-144-2.4-268.1,52.3-356.5,129.8c-30.5,14.8-84.2,40.3-84.2,40.3l20.2,27.5
		c-1.2,1.6-2.5,3.2-3.7,4.8l-74.7,29.9l41.4,24.5c-0.9,2-1.8,4-2.7,6l-64.7,51.8l48-6.9c-45.3,143.2-48,352-48,370.2
		c0,2.6,0.8,10,2.3,21c-28.5,12.2-53.7,40.8-59.6,102.3c-4.7,48.2,15.6,90.6,25.4,107.8c9.8,43.3,35.8,90.2,80.5,97.5
		c5.6,20.6,12.1,40.8,19.4,60.2c0.5,1.3,1,2.5,1.5,3.7l0.7,1.7c32.8,84.5,79.1,165.3,138.4,223.6c-0.4,11.5-1,22.7-2.1,33.1
		c-6.8,67.5,13.1,116.9-176,198.4c-189.1,81.5-473.7,168.2-532,299.3c-58.3,131.1-35,208.2-35,208.2h2038.7
		C2043.3,2176,2066.8,2098.9,2008.5,1967.8z"/>
</g>
<g id="Face_2" display="none">
	<path display="inline" fill="#2D2D2D" d="M2008.5,1967.8c-58.3-131.1-342.9-217.9-532-299.3c-189.1-81.5-163.3-130.8-170.1-198.4
		c-0.1-1.3-0.2-2.7-0.4-4.1c67.8-19.7,178.9-64.6,236.3-150.1c81.3-121,59.5-277.6,64.5-360.2c5-82.6,9-269.3-26.5-413.1
		c-35.5-143.8-80.8-277.9-164.8-352.3c-84.1-74.4-151.1-69.1-192-57.1c-3.3-12.2-12.1-32-35.6-41.4
		c-35.2-14.1-224.7-54.9-403.5,39.7C605.7,226.1,531,415.5,486,589.5c-45,174-68.1,363.5-26.4,579.6
		c36.8,190.8,203.2,258.7,289.5,280.9c-0.4,6.9-0.9,13.6-1.5,20c-6.8,67.5,13.1,116.9-176,198.4c-189.1,81.5-473.7,168.2-532,299.3
		c-58.3,131.1-35,208.2-35,208.2h2038.7C2043.3,2176,2066.8,2098.9,2008.5,1967.8z"/>
	<path display="inline" fill="#2D2D2D" d="M749.9,1398.9c0,1.5,0,3,0.1,4.5c-0.7-2-1.3-4.1-1.9-6.1
		C748.6,1397.8,749.2,1398.3,749.9,1398.9z"/>
</g>
<g id="Face_3" display="none">
	<path display="inline" fill="#2D2D2D" d="M1998.9,1969.8c-57.7-129.8-339.6-215.7-526.8-296.4c-187.2-80.7-161.7-129.6-168.4-196.4
		c-1.9-18.7-2.5-39.8-2.3-60.5c54.8-45.4,101.9-100.6,131.1-175.8c0,0,1.8-4.5,2.3-5.8c7.2-19.1,10.2-74.3,15.7-94.6
		c42.9-8.5,67.9-54,77.5-96.2c9.7-17.1,29.7-59.1,25.1-106.8c-5.9-61.4-31.3-89.8-59.8-101.7c0-3.7,0.1-7.2,0.1-10.6
		c0-10.8-0.2-21.5-0.4-32.3c8.1-56.8,15.1-113,15.1-145c0-41.9-9-125-37.5-201.2l0.5,0.5l-37.4-79.8l-6.5-32.1l-32.1-9.1
		c-1.7-1.6-3.5-3-5.3-4.5c3.9-7.8-27.5-30.6-0.5-39.8c-11.6-16.1-68.6-6.8-68.6-6.8s-8.6-55.4-22.4-62.8c-7.2,10.1-35.7,7-59,5.2
		c-88.3-11.6-33.8-86.7-124.7-95.1c0.4-35.6-0.4-64.1-0.4-64.1s-46.2,38.7-63.3,23.6C1040.3,45.9,1064.6,1,1064.6,1
		s-66.6,0.7-82.5,67c-14-19.1,2.2-48.6,13.3-63.3C910.9,33.3,883.8,96.8,850,137.5c-4.5,5.4-16.9-18.8-15.3-33.8
		c-32.9,15.4-53,104.4-67.8,110.8c-14.8,6.3-45.1-18.9-47.2-29c-31,2.2-104.1,151.5-104.1,151.5l-72,72c0,0,36.4-2.7,38.2,10.4
		c1.8,13.1-53.4,110.8-53.4,110.8s29.9-17.2,33-7.3c3.1,9.8-0.6,3.3-0.9,5l-43.5,116l30.4-11.7c-3.7,42.4-5.4,83.9-5.4,121.4
		c0,36,1.4,63.9,3.6,86.6c-24.6,14-45.4,42.4-50.7,97.2c-4.6,47.7,15.5,89.7,25.1,106.8c9.7,42.9,35.4,89.3,79.7,96.6
		c5.5,20.4,14.5,70.2,21.8,89.5c0.5,1.2,1,2.5,1.5,3.7l0.7,1.7c29.6,76.2,74.9,131.5,128.9,177.1c0.2,21.9-0.3,44.4-2.3,64.3
		c-6.7,66.9,13,115.8-174.3,196.4c-187.2,80.7-469,166.6-526.8,296.4C-8.5,2099.6,14.6,2176,14.6,2176h2018.8
		C2033.4,2176,2056.6,2099.6,1998.9,1969.8z"/>
</g>
<g id="Face_4" display="none">
	<path display="inline" fill="#2D2D2D" d="M2008.5,1967.8c-58.3-131.1-342.9-217.9-532-299.3c-189.1-81.5-163.2-130.8-170-198.4
		c-1.6-15.6-2.2-32.8-2.4-50.1c57.3-54.4,104.3-125.3,135.7-206.3c0,0,1.8-4.5,2.3-5.9c7.2-19.2,13.7-39.3,19.2-59.8
		c43.3-8.6,68.6-54.6,78.2-97.1c9.7-17.2,30-59.7,25.4-107.8c-6-62-31.6-90.7-60.4-102.7c0-3.7,0.1-7.3,0.1-10.7
		c0-15.6-0.4-31.2-1-46.7c9.1-61.7,5.8-146.5-17.3-232.7c36.9,19,72,13.8,142.5-6.8c84.3-24.6,26.8,106,176.6,89.1
		c-104.5-29.6-27.8-205.4-164.7-235.9c-112.1-25-157.6,68-170.4,102.6c-58.3-160.6-190.9-311.5-446.8-311.5
		c-254,0-387.2,151-445.7,311.7c-12.7-34.3-58.1-127.8-170.5-102.8C270.4,427.2,347,603,242.6,632.6
		c149.8,16.9,92.3-113.8,176.6-89.1c70.6,20.6,105.7,25.8,142.6,6.7c-25,92.9-26.8,184-14.2,246.4c-0.3,11-0.5,22-0.5,33.1
		c0,3.2,0,6.5,0.1,9.9c-29.7,11.4-56.5,40-62.6,103.5c-4.6,48.2,15.6,90.6,25.4,107.8c9.8,43.3,35.8,90.2,80.5,97.5
		c5.6,20.6,12.1,40.8,19.4,60.2c0.5,1.3,1,2.5,1.5,3.7l0.7,1.7c31.8,81.9,79.6,153.6,137.9,208.2c-0.2,16.5-0.8,32.9-2.3,47.9
		c-6.8,67.5,13.1,116.9-176,198.4c-189.1,81.5-473.7,168.2-532,299.3c-58.3,131.1-35,208.2-35,208.2h2038.7
		C2043.3,2176,2066.8,2098.9,2008.5,1967.8z"/>
</g>
<g id="Face_5" display="none">
	<path display="inline" fill="#2D2D2D" d="M2008.5,1967.8c-58.3-131.1-342.9-217.9-532-299.3c-189.1-81.5-163.3-130.8-170.1-198.4
		c-0.8-8.3-1.4-17-1.8-25.9c56-47.4,107.2-105.2,134.3-175.3c0,0,1.8-4.5,2.3-5.9c7.2-19.2,13.7-69.1,19.2-89.5
		c43.4-8.6,68.6-54.6,78.3-97.1c9.7-17.2,30-59.7,25.4-107.8c-6-62-31.6-90.7-60.4-102.7c0-3,0-5.7,0.1-8.5
		c5.7-60,6.4-133.1-6.8-241.9c-3.1-8.2,6.6-15.9,17.1-24.7c-19.3-15.6-26-69.8-3.8-117.1c-12.6-3.7-25.1-7.4-37.7-11.1
		c8.9-5.9,17.7-11.8,26.6-17.7c-8.1-4.4-16.3-8.9-24.4-13.3c8.1-1.5,16.2-3,24.4-4.4c-12.6-7.4-25.1-14.8-37.7-22.2
		c8.1-2.2,16.3-4.4,24.4-6.6c-47-42-66.6-62.9-68.7-117.5c-9.6,6.6-19.2,13.3-28.8,19.9c-5.2-39.8-10.7-31.7-22.2-75.4
		c-4.4,7.4-8.9,14.8-13.3,22.2C1264,110,1175,112.9,1056.1,71.1c30.5,36.5,20.5,52.4-4.4,48.8c-175.8-58.8-186.1,87.7-297,68.7
		c1.5,14.8,3,29.6,4.4,44.3c-11.8-4.4-23.6-8.9-35.5-13.3c2.2,8.1,4.4,16.2,6.6,24.4c-14.8-1.5-29.5-3-44.3-4.4
		c5.9,11.8,11.8,23.6,17.7,35.5c-14-3.7-28.1-7.4-42.1-11.1c5.2,13.3,10.3,26.6,15.5,39.9c-19.9-3.7-39.9-7.4-59.8-11.1
		c17.7,15.5,35.5,31,53.2,46.5c-14-0.7-28.1-1.5-42.1-2.2c8.9,10.3,17.7,20.7,26.6,31c-135.9,24.4-129.4,299.1-108.4,472
		c-0.1,5-0.2,9.9-0.2,14.9c0,3.2,0,6.5,0.1,9.9c-29.7,11.4-56.5,40-62.6,103.5c-4.6,48.2,15.6,90.6,25.4,107.8
		c9.8,43.3,35.8,90.2,80.5,97.5c5.6,20.6,12.1,64.6,19.4,84c0.5,1.3,1,2.5,1.5,3.7l0.7,1.7c27.1,69.9,80.6,129.9,138.2,178.9
		c-0.4,9.7-1,19.1-1.9,28c-6.8,67.5,13.1,116.9-176,198.4s-473.7,168.2-532,299.3c-58.3,131.1-35,208.2-35,208.2h2038.7
		C2043.3,2176,2066.8,2098.9,2008.5,1967.8z"/>
</g>
<g id="Face_6" display="none">
	<path display="inline" fill="#2D2D2D" d="M2008.5,1967.8c-58.3-131.1-342.9-217.9-532-299.3c-186.5-80.3-163.9-129.5-169.8-195.6
		c100.7,14.2,263.1,2.6,345.9-189c0,0-163.9,87.7-163.9-36.9c0-85.3,155.7-247.5,155.7-523.9c0-276.4-249.1-556.7-616.9-556.7
		S422.7,462.6,422.7,755c0,292.3,218.1,480.3,109,538.3c0,0-64.7,37.5-136.3-17c0,0,86.3,219.4,352.7,188.9
		c-0.1,1.7-0.3,3.3-0.5,4.9c-6.8,67.5,13.1,116.9-176,198.4c-189.1,81.5-473.7,168.2-532,299.3c-58.3,131.1-35,208.2-35,208.2
		h2038.7C2043.3,2176,2066.8,2098.9,2008.5,1967.8z"/>
</g>
<g id="Face_7" display="none">
	<path display="inline" fill="#2D2D2D" d="M2008.5,1967.8c-58.3-131.1-342.9-217.9-532-299.3c-189.1-81.5-163.2-130.8-170-198.4
		c-1-9.7-1.6-20.1-2-30.7c56.8-54.2,103.4-124.8,134.5-205.1c0,0,1.8-4.5,2.3-5.9c7.2-19.2,13.7-39.3,19.2-59.8
		c43.3-8.6,68.6-54.6,78.2-97.1c9.7-17.2,30-59.7,25.4-107.8c-6-62-31.6-90.7-60.4-102.7c0-0.9,0-1.7,0-2.5
		c18-59.6,35.1-120.9,37.2-217.1c1.7-76.4-21.3-136.3-64-200.2c-6-8.9-211.1-275.7-212.2-285.9c-6.5,13.4,2.1,72.2-38.1,59.9
		c5.1,1.5,26.2-32.1,6-71.4c-9.8,35.1-34.1,56.6-73.1,64.5c17.3-15.4,28.8-34.4,34.7-57c-18.8,20.7-43.2,28.5-73.1,23.5
		c-0.7-19.9,6.3-37.6,21.1-53.3c-22.4,15.2-47.6,23.4-75.6,24.8c-6.1-22.6-4.4-44.9,5-66.9c-25.3,30-56.7,51.9-94.2,65.7
		c-14.4-19.7-14.4-42,0-66.9c-17.6,29.9-39.5,56.4-65.7,79.3c-8-17.7-13-36.3-14.9-55.8c-69.2,119.8-197.4,209.3-299.3,302.9
		c-129.2,145.1-103.7,298.7-58.2,458.8c-26.7,13.2-49.8,42-55.4,100.4c-4.7,48.2,15.6,90.6,25.4,107.8c9.8,43.3,35.8,90.2,80.5,97.5
		c5.6,20.6,12.1,40.8,19.4,60.2c0.5,1.3,1,2.5,1.5,3.7l0.7,1.7c31.8,82,79.8,153.8,138.2,208.4c-0.4,9.4-1,18.5-1.8,27.1
		c-6.8,67.5,13.1,116.9-176,198.4c-189.1,81.5-473.7,168.2-532,299.3c-58.3,131.1-35,208.2-35,208.2h2038.7
		C2043.3,2176,2066.8,2098.9,2008.5,1967.8z"/>
</g>
<g id="Face_8" display="none">
	<path display="inline" fill="#2D2D2D" d="M2008.2,1968c-58.3-131.1-342.9-217.9-532-299.3c-189.1-81.5-163.3-130.8-170-198.4
		c-1.8-17.5-2.4-37.2-2.4-56.6c41.2-43.3,77.1-97.5,105.5-154.9c35.4-20.1,78.1-31.7,106.4-60.1c31.6-31.6,42.3-81,67.3-118.3
		c24.8-37,66.4-65.7,83.7-107.4c17-40.9,8-90.6,16.8-135.1c8.5-43.2,36-85.6,36-131.3s-27.5-88.1-36-131.3
		c-8.8-44.5,0.2-94.1-16.8-135.1c-17.3-41.7-58.9-70.3-83.7-107.4c-25-37.3-35.7-86.7-67.3-118.3c-31.6-31.6-81-42.3-118.3-67.3
		c-37-24.8-65.7-66.4-107.4-83.7c-40.9-17-90.6-8-135.1-16.8c-43.2-8.5-85.6-36-131.3-36c-45.7,0-88.1,27.5-131.3,36
		c-44.5,8.8-94.1-0.2-135.1,16.8c-41.7,17.3-70.3,58.9-107.4,83.7c-37.3,25-86.7,35.7-118.3,67.3c-31.6,31.6-42.3,81-67.3,118.3
		c-24.8,37-66.4,65.7-83.7,107.4c-17,40.9-8,90.6-16.8,135.1c-8.5,43.2-36,85.6-36,131.3s27.5,88.1,36,131.3
		c8.8,44.5-0.2,94.1,16.8,135.1c17.3,41.7,58.9,70.3,83.7,107.4c25,37.3,35.7,86.7,67.3,118.3c28.4,28.4,71,40,106.4,60.1
		c29.8,60.1,67.8,116.9,111.5,161.2c-0.1,17.3-0.8,34.7-2.4,50.3c-6.8,67.5,13.1,116.9-176,198.4c-189.1,81.5-473.7,168.2-532,299.3
		c-58.3,131.1-35,208.2-35,208.2h2038.7C2043.1,2176.3,2066.6,2099.1,2008.2,1968z"/>
</g>
<g id="Face_9" display="none">
	<path display="inline" fill="#2D2D2D" d="M2008.5,1967.8c-58.3-131.1-342.9-217.9-532-299.3c-189.1-81.5-163.3-130.8-170.1-198.4
		c-1.8-18-2.4-38.2-2.4-58.1c56.1-54,102.2-124,133-203.7c0,0,1.8-4.5,2.3-5.9c7.2-19.2,13.7-39.3,19.2-59.8
		c43.3-8.6,68.6-54.6,78.3-97.1c9.7-17.2,30-59.7,25.4-107.8c-4.2-43.3-18-70.3-35.7-86.8c71.1-87.6,118.5-287.6-88.7-389.1
		c0,0-40.1-288.5-500.1-256.2C602.3,248.4,567.1,493,558.4,498.4c-113.8,71.2-121.7,301.5-56.5,372c-9.9,16.2-17.1,38-19.9,67.2
		c-4.7,48.2,15.6,90.6,25.4,107.8c9.8,43.3,35.8,90.2,80.5,97.5c5.6,20.6,12.1,40.8,19.4,60.2c0.5,1.3,1,2.5,1.5,3.7l0.7,1.7
		c32.3,83.1,81.1,155.8,140.6,210.6c-0.1,17.5-0.8,35-2.4,50.8c-6.8,67.5,13.1,116.9-176,198.4c-189.1,81.5-473.7,168.2-532,299.3
		c-58.3,131.1-35,208.2-35,208.2h2038.7C2043.3,2176,2066.8,2098.9,2008.5,1967.8z"/>
</g>
<g id="Face_10" display="none">
	<path display="inline" fill="#2D2D2D" d="M2008.5,1967.8c-58.3-131.1-342.9-217.9-532-299.3c-189.1-81.5-163.3-130.8-170.1-198.4
		c-0.9-8.9-1.5-18.4-1.9-28.2c56.7-54.2,103.3-124.7,134.4-205c0,0,1.8-4.5,2.3-5.9c7.2-19.2,13.7-39.3,19.2-59.8
		c43.3-8.6,68.6-54.6,78.2-97.1c9.7-17.2,30-59.7,25.4-107.8c-5.7-59.2-29.3-87.9-56.5-100.9c7.3-17.3,14.1-35.3,19.6-53.1
		c28-91,1.4-294.7-44.6-407c-46-112.3-237.9-197.8-298.7-195.2c-52.8,2.2-71.9,25.7-95.5,42.2c-3.4-17-11.1-32.2-25.9-43
		c-55.6-40.6-230.9-58.7-312.3,3.4c-81.4,62.1-100.5,95.7-163.1,184.8c-62.6,89.1-83,307.6-76.9,354.2c3.8,28.9,15.6,74.8,29,114.1
		c-26.8,13.1-49.9,41.9-55.6,100.4c-4.7,48.2,15.6,90.6,25.4,107.8c9.8,43.3,35.8,90.2,80.5,97.5c5.6,20.6,12.1,40.8,19.4,60.2
		c0.5,1.3,1,2.5,1.5,3.7l0.7,1.7c31.8,81.9,79.7,153.7,138,208.3c-0.4,8.5-0.9,16.7-1.7,24.5c-6.8,67.5,13.1,116.9-176,198.4
		c-189.1,81.5-473.7,168.2-532,299.3c-58.3,131.1-35,208.2-35,208.2h2038.7C2043.3,2176,2066.8,2098.9,2008.5,1967.8z"/>
</g>
<g id="Face_11" display="none">
	<path display="inline" fill="#2D2D2D" d="M2008.5,1967.8c-58.3-131.1-342.9-217.9-532-299.3c-189.1-81.5-163.3-130.8-170.1-198.4
		c-2-19.6-2.5-41.8-2.3-63.4c57-54.3,103.7-125,134.9-205.5c0,0,1.8-4.5,2.3-5.9c7.2-19.2,13.7-39.3,19.2-59.8
		c43.4-8.6,68.6-54.6,78.2-97.1c9.8-17.2,30-59.7,25.4-107.8c-4.6-47.6-20.8-75.5-41.1-91.3c9.8-42.5,15.1-86.9,15.1-132.7
		c0-210.4-110.1-392.9-271.4-484.2c-4.4-103.6-107.5-186.5-234-186.5s-229.6,82.9-234,186.5c-161.3,91.2-271.4,273.8-271.4,484.2
		c0,42.4,4.6,83.6,13,123.1c-27.2,12.9-50.7,41.7-56.5,100.9c-4.6,48.2,15.6,90.6,25.4,107.8c9.8,43.3,35.8,90.2,80.5,97.5
		c5.6,20.6,12.1,40.8,19.4,60.2c0.5,1.3,1,2.5,1.5,3.7l0.7,1.7c31.9,82.2,80,154.3,138.7,208.9c0.1,20.4-0.5,41.2-2.4,59.6
		c-6.8,67.5,13.1,116.9-176,198.4c-189.1,81.5-473.7,168.2-532,299.3c-58.3,131.1-35,208.2-35,208.2h2038.7
		C2043.3,2176,2066.8,2098.9,2008.5,1967.8z"/>
</g>
<g id="Face_12" display="none">
	<path display="inline" fill="#2D2D2D" d="M2008.5,1967.8c-58.3-131.1-342.9-217.9-532-299.3c-189.1-81.5-163.3-130.8-170.1-198.4
		c-0.4-4.1-0.8-8.3-1.1-12.6c40.2-34.8,75.8-77.6,105.2-126.3c117.3,27.5,248.8,25.1,363.8-58.2
		c-183.6-183.6-79.7-427.9-212.2-833.4C1449.4,94.8,987.4,111.8,927.9,232.9C682.8,146.3,498,262.2,430,627.4
		c-78.2,419.5,27.2,463.6-156.4,647.1c127.5,72.9,245.5,63.7,349.8,28.3c33,62,75.6,115.9,124.9,157.8c-0.2,3.2-0.5,6.4-0.8,9.5
		c-6.8,67.5,13.1,116.9-176,198.4c-189.1,81.5-473.7,168.2-532,299.3c-58.3,131.1-35,208.2-35,208.2h2038.7
		C2043.3,2176,2066.8,2098.9,2008.5,1967.8z"/>
</g>
<g id="Face_13" display="none">
	<path display="inline" fill="#2D2D2D" d="M2008.5,1967.8c-58.3-131.1-342.9-217.9-532-299.3c-189.1-81.4-163.3-130.8-170.1-198.4
		c-1.1-10.7-1.7-22.2-2.1-33.9c57.9-54.5,105.4-126,137-207.6c0,0,1.8-4.5,2.3-5.9c7.2-19.2,13.7-39.3,19.2-59.8
		c43.3-8.6,68.6-54.6,78.3-97.1c9.7-17.2,30-59.7,25.4-107.8c-4.7-48.7-21.6-76.8-42.5-92.4c34.7-192.1,2.1-293.1-22.8-404.4
		c-18.9-84.4,78.8,6,78.8,6c4.5-77.3-132.6-167.2-159.7-232.2c-7.9-19.1,70.1,8.1,70.1,8.1c-242.1-256.3-708.6-78.1-708.6-78.1
		s-185-43.2-219.3-0.4c-2.2,2.7,44.8-2.7,63,28.8c23,39.9-75.4,98.2-75.4,98.2C467,350,480.1,393.8,480.1,393.8
		c25.6-28.9,79.7-13.8,79.7-13.8S447,471.4,471.2,519.8c2.5,5,61.2-56.4,65.4,20.8c5.4,97.3-9.2,151.8,5.9,316.5
		c-27.1,13-50.7,41.7-56.4,100.8c-4.7,48.2,15.6,90.6,25.4,107.8c9.8,43.3,35.8,90.2,80.5,97.5c5.6,20.6,12.1,40.8,19.4,60.2
		c0.5,1.3,1,2.5,1.5,3.7l0.7,1.7c31.5,81,78.6,152,136,206.4c-0.3,12-1,23.8-2.1,34.8c-6.8,67.5,13.1,116.9-176,198.4
		c-189.1,81.5-473.7,168.2-532,299.3c-58.3,131.1-35,208.2-35,208.2h2038.7C2043.3,2176,2066.8,2098.9,2008.5,1967.8z"/>
</g>
<path id="Face_14" fill="none" d="M2008.5,1967.8c-58.3-131.1-342.9-217.9-532-299.3c-189.1-81.4-163.3-130.8-170.1-198.4
	c-0.9-9.3-1.5-19.1-1.9-29.2c64.9-56,118-132.7,152.3-221.4c0,0,1.8-4.5,2.3-5.9c7.2-19.2,13.7-39.3,19.2-59.8
	c43.3-8.6,68.6-54.6,78.2-97.1c9.7-17.2,30-59.7,25.4-107.8c-6-62-31.6-90.7-60.4-102.7c0-3.7,0.1-7.3,0.1-10.7
	c0-79-7.5-192.6-22.4-267.2c-3.2-20.6-7.9-41.4-14.2-61.7c-27.9-91.5-86.3-173.7-164.4-231.5c-80.6-59.7-194.5-91.2-295.7-91.2
	c-101.2,0-215.1,31.5-295.7,91.2c-78.1,57.8-136.4,140-164.4,231.5c-6.2,20.3-11,41.1-14.2,61.7c-14.8,74.6-22.4,188.2-22.4,267.2
	c0,3.2,0,6.5,0.1,9.9c-29.7,11.4-56.4,40-62.6,103.5c-4.7,48.2,15.6,90.6,25.4,107.8c9.8,43.3,35.8,90.2,80.5,97.5
	c5.6,20.6,12.1,40.8,19.4,60.2c0.5,1.3,1,2.5,1.5,3.7l0.7,1.7c35,90.2,89.5,168,156,224.2c-0.4,9-1,17.7-1.8,26
	c-6.8,67.5,13.1,116.9-176,198.4c-189.1,81.5-473.7,168.2-532,299.3c-58.3,131.1-35,208.2-35,208.2h2038.7
	C2043.3,2176,2066.8,2098.9,2008.5,1967.8z"/>
<g id="Face_15" display="none">
	<path display="inline" fill="#2D2D2D" d="M2008.5,1967.8c-58.3-131.1-342.9-217.9-532-299.3c-189.1-81.4-163.3-130.8-170-198.4
		c-1.2-11.7-1.8-24.2-2.2-37.1c59.6-55.9,100.7-132.1,134.7-220c0,0,1.8-4.5,2.3-5.9c7.2-19.2,13.7-39.3,19.2-59.8
		c43.4-8.6,68.6-54.6,78.2-97.1c9.7-17.2,30-59.7,25.4-107.8c-6-62-31.6-90.7-60.4-102.7c0-3.7,0.1-7.3,0.1-10.7
		c0-79-7.5-156.9-22.4-231.5c-3.2-20.6-7.9-41.4-14.2-61.7c-17.7-58-47.7-112.3-87.2-159.1c2.1-21.2,3.5-58.3-7.9-82.3
		c-16.7-35.2-71.2-48.1-70.5-64.7c3.1-68.7-129-44.5-129.6-50.2c-8.4-41.1-98.9-49.5-138.9-32.5c-40,17-55.3,23.4-91,20.4
		c-73.4-6.2-163.3,9.9-186.8,90c-1.1,3.6-1.9,7.1-2.7,10.5c-22.5,3.8-39.6,23.4-39.6,46.9c0,6.8,1.3,11.2,3.8,14.2
		C654,384.5,607.1,456.7,582.9,535.8c-6.2,20.3-11,41.1-14.2,61.7C553.9,672.1,546.4,750,546.4,829c0,3.2,0,6.5,0.1,9.9
		c-29.7,11.4-56.5,40-62.6,103.5c-4.6,48.2,15.6,90.6,25.4,107.8c9.8,43.3,35.8,90.2,80.5,97.5c5.6,20.6,12.1,40.8,19.4,60.2
		c0.5,1.3,1,2.5,1.5,3.7l0.7,1.7c34.8,89.6,76.7,167.1,138.4,223.2c-0.4,11.6-1,22.9-2.1,33.5c-6.8,67.5,13.1,116.9-176,198.4
		c-189.1,81.5-473.7,168.2-532,299.3c-58.3,131.1-35,208.2-35,208.2h2038.7C2043.3,2176,2066.8,2098.9,2008.5,1967.8z"/>
</g>
</svg>
