<?xml version="1.0" encoding="utf-8"?>
<!-- Generator: Adobe Illustrator 18.0.0, SVG Export Plug-In . SVG Version: 6.00 Build 0)  -->
<!DOCTYPE svg PUBLIC "-//W3C//DTD SVG 1.1//EN" "http://www.w3.org/Graphics/SVG/1.1/DTD/svg11.dtd">
<svg version="1.1" id="Layer_1" xmlns="http://www.w3.org/2000/svg" xmlns:xlink="http://www.w3.org/1999/xlink" x="0px" y="0px"
	 viewBox="0 0 612 792" enable-background="new 0 0 612 792" xml:space="preserve">
<path fill="#B15D2F" d="M305,97C135,97-1,233-1,403s136,306,306,306s306-136,306-306S475,97,305,97z M373,413.2l61.2,61.2
	c6.8,6.8,6.8,13.6,0,20.4l-37.4,37.4c-6.8,6.8-13.6,6.8-20.4,0L315.2,471c-6.8-6.8-13.6-6.8-20.4,0l-61.2,61.2
	c-6.8,6.8-13.6,6.8-20.4,0l-37.4-37.4c-6.8-6.8-6.8-13.6,0-20.4l61.2-61.2c6.8-6.8,6.8-13.6,0-20.4l-61.2-61.2
	c-6.8-6.8-6.8-13.6,0-20.4l37.4-37.4c6.8-6.8,13.6-6.8,20.4,0l61.2,61.2c6.8,6.8,13.6,6.8,20.4,0l61.2-61.2c6.8-6.8,13.6-6.8,20.4,0
	l37.4,37.4c6.8,6.8,6.8,13.6,0,20.4L373,392.8C366.2,399.6,366.2,406.4,373,413.2z"/>
</svg>
