<?xml version="1.0" encoding="utf-8"?>
<!-- Generator: Adobe Illustrator 17.1.0, SVG Export Plug-In . SVG Version: 6.00 Build 0)  -->
<!DOCTYPE svg PUBLIC "-//W3C//DTD SVG 1.1//EN" "http://www.w3.org/Graphics/SVG/1.1/DTD/svg11.dtd">
<svg version="1.1" id="Layer_1" xmlns="http://www.w3.org/2000/svg" xmlns:xlink="http://www.w3.org/1999/xlink" x="0px" y="0px"
	 viewBox="300.1 388.6 18 18" enable-background="new 300.1 388.6 18 18" xml:space="preserve">
<path fill="#B15D2F" d="M309.1,388.6c-5,0-9,4-9,9s4,9,9,9s9-4,9-9S314.1,388.6,309.1,388.6z M311.1,397.9l1.8,1.8
	c0.2,0.2,0.2,0.4,0,0.6l-1.1,1.1c-0.2,0.2-0.4,0.2-0.6,0l-1.8-1.8c-0.2-0.2-0.4-0.2-0.6,0l-1.8,1.8c-0.2,0.2-0.4,0.2-0.6,0l-1.1-1.1
	c-0.2-0.2-0.2-0.4,0-0.6l1.8-1.8c0.2-0.2,0.2-0.4,0-0.6l-1.8-1.8c-0.2-0.2-0.2-0.4,0-0.6l1.1-1.1c0.2-0.2,0.4-0.2,0.6,0l1.8,1.8
	c0.2,0.2,0.4,0.2,0.6,0l1.8-1.8c0.2-0.2,0.4-0.2,0.6,0l1.1,1.1c0.2,0.2,0.2,0.4,0,0.6l-1.8,1.8C310.9,397.5,310.9,397.7,311.1,397.9
	z"/>
</svg>
