<?xml version="1.0" encoding="utf-8"?>
<!-- Generator: Adobe Illustrator 15.0.2, SVG Export Plug-In . SVG Version: 6.00 Build 0)  -->
<!DOCTYPE svg PUBLIC "-//W3C//DTD SVG 1.1//EN" "http://www.w3.org/Graphics/SVG/1.1/DTD/svg11.dtd">
<svg version="1.1" id="Layer_1" xmlns="http://www.w3.org/2000/svg" xmlns:xlink="http://www.w3.org/1999/xlink" x="0px" y="0px"
	 width="995.801px" height="977.804px" viewBox="0 0 995.801 977.804" enable-background="new 0 0 995.801 977.804"
	 xml:space="preserve">
<ellipse fill="#B05C2F" cx="499.88" cy="491.553" rx="491.098" ry="483.528"/>
<path fill="#FFFFFF" stroke="#FFFFFF" stroke-miterlimit="10" d="M824.6,272.655"/>
<path fill="#FFFFFF" d="M-706.823,734.635"/>
<path fill="#FFFFFF" d="M297.149,641.675l124.474-124.474c0,0,199.456,32.993,200.955-166.462
	c1.501-199.456-170.962-182.959-181.459-184.459l-151.466-3c0,0-146.967,5.999-146.967,175.461s134.97,175.461,148.466,175.461
	C304.649,514.203,297.149,641.675,297.149,641.675z"/>
<path fill="#FFFFFF" d="M378.064,631.394l64.52-66.094c0,0,193.474,34.437,227.966-172.517c0,0,182.946-13.523,181.448,181.433
	c-1.499,194.956-193.477,167.935-154.477,166.436V868.56L574.637,745.149C574.637,745.149,401.991,757.584,378.064,631.394z"/>
</svg>
