<?xml version="1.0" encoding="utf-8"?>
<!-- Generator: Adobe Illustrator 18.0.0, SVG Export Plug-In . SVG Version: 6.00 Build 0)  -->
<!DOCTYPE svg PUBLIC "-//W3C//DTD SVG 1.1//EN" "http://www.w3.org/Graphics/SVG/1.1/DTD/svg11.dtd">
<svg version="1.1" id="Layer_1" xmlns="http://www.w3.org/2000/svg" xmlns:xlink="http://www.w3.org/1999/xlink" x="0px" y="0px"
	 viewBox="0 0 995.8 977.8" enable-background="new 0 0 995.8 977.8" xml:space="preserve">
<path fill="#B05C2F" d="M499.9,8C228.7,8,8.8,224.5,8.8,491.6s219.9,483.5,491.1,483.5S991,758.6,991,491.6S771.1,8,499.9,8z
	 M291.2,514.2c-13.5,0-148.5-6-148.5-175.5s147-175.5,147-175.5l151.5,3c10.5,1.5,183-15,181.5,184.5
	c-1.5,199.5-201,166.5-201,166.5L297.1,641.7C297.1,641.7,304.6,514.2,291.2,514.2z M697.5,742.6v126L574.6,745.1
	c0,0-172.6,12.4-196.6-113.8l64.5-66.1c0,0,193.5,34.4,228-172.5c0,0,182.9-13.5,181.4,181.4C850.8,731.9,724.9,744.4,697.5,742.6z"
	/>
</svg>
