<?xml version="1.0" encoding="utf-8"?>
<!-- Generator: Adobe Illustrator 18.0.0, SVG Export Plug-In . SVG Version: 6.00 Build 0)  -->
<!DOCTYPE svg PUBLIC "-//W3C//DTD SVG 1.1//EN" "http://www.w3.org/Graphics/SVG/1.1/DTD/svg11.dtd">
<svg version="1.1" id="Layer_1" xmlns="http://www.w3.org/2000/svg" xmlns:xlink="http://www.w3.org/1999/xlink" x="0px" y="0px"
	 viewBox="0 0 1040 1002" enable-background="new 0 0 1040 1002" xml:space="preserve">
<path fill="#B05C2F" d="M1012.5,506c0-267-219.9-483.5-491.1-483.5S30.3,238.9,30.3,506s219.9,483.5,491.1,483.5
	c138.6,0,263.7-56.5,353-147.4L734.1,755c-21,0-319.9,0-344-1.3c-25.3-1.3-37.5-11.7-38-12.2l-0.1-0.1L114.8,510.4l-0.1-0.9
	c-3.3-21.5-0.1-38.2,9.7-49.6c12-14,30.9-17,44.7-17c7.2,0,12.1,0.8,12.3,0.9l0.7,0.1L364,609l294.5,2.5c3.1-2.8,4.7-5.9,4.9-9.4
	c0.4-6.7-4.1-10.2-6.2-12.8l-7.8-0.8l-0.3,0l-240.2,2.6l-0.7-0.6c-18.2-14.4-27.3-30.2-26.9-46.8c0.7-28.4,28.4-48.6,29.6-49.5
	l0.7-0.5l0.8,0l326.1,3.9l56.9,52.7l-0.1-0.5l178.5,144.6C998.7,636.5,1012.5,572.8,1012.5,506z M534.8,428.4
	C283.4,245.8,415.2,168.9,415.2,168.9c68.5-32.4,123.1,35,123.1,35c62.4-81.9,132.6-26.5,132.6-26.5
	C763.7,283.3,534.8,428.4,534.8,428.4z"/>
</svg>
