<?xml version="1.0" encoding="utf-8"?>
<!-- Generator: Adobe Illustrator 15.0.2, SVG Export Plug-In . SVG Version: 6.00 Build 0)  -->
<!DOCTYPE svg PUBLIC "-//W3C//DTD SVG 1.1//EN" "http://www.w3.org/Graphics/SVG/1.1/DTD/svg11.dtd">
<svg version="1.1" id="Layer_1" xmlns="http://www.w3.org/2000/svg" xmlns:xlink="http://www.w3.org/1999/xlink" x="0px" y="0px"
	 width="1040px" height="1002px" viewBox="0 0 1040 1002" enable-background="new 0 0 1040 1002" xml:space="preserve">
<ellipse fill="#B05C2F" cx="521.358" cy="505.993" rx="491.098" ry="483.528"/>
<path fill="#FFFFFF" d="M534.837,428.439c0,0,228.874-145.108,136.108-250.948c0,0-70.219-55.484-132.637,26.458
	c0,0-54.619-67.434-123.106-35C415.202,168.949,283.431,245.775,534.837,428.439z"/>
<path fill="#FFFFFF" stroke="#FFFFFF" stroke-width="5.1613" stroke-miterlimit="10" d="M978.039,903.485l0.018-2.486l1.283-176.764
	l-241.873-224.06l-325.097-3.84c0,0-62.418,44.812-2.6,92.184l239.271-2.561l9.102-2.56c0,0,16.905,17.924,1.302,30.729
	l-296.489-2.562L180.9,446.401c0,0-75.421-12.803-63.72,62.737l236.671,230.462c0,0,11.704,10.242,36.412,11.523
	c24.707,1.279,344.604,1.279,344.604,1.279l149.111,92.644L978.039,903.485z"/>
<path fill="#FFFFFF" stroke="#FFFFFF" stroke-miterlimit="10" d="M846.078,287.095"/>
<polygon fill="#FFFFFF" stroke="#FFFFFF" stroke-width="5.1613" stroke-miterlimit="10" points="883,843 800,557 984,706 "/>
</svg>
