<?xml version="1.0" encoding="utf-8"?>
<!-- Generator: Adobe Illustrator 15.0.2, SVG Export Plug-In . SVG Version: 6.00 Build 0)  -->
<!DOCTYPE svg PUBLIC "-//W3C//DTD SVG 1.1//EN" "http://www.w3.org/Graphics/SVG/1.1/DTD/svg11.dtd">
<svg version="1.1" id="Layer_1" xmlns="http://www.w3.org/2000/svg" xmlns:xlink="http://www.w3.org/1999/xlink" x="0px" y="0px"
	 width="330px" height="330px" viewBox="0 0 330 330" enable-background="new 0 0 330 330" xml:space="preserve">
<circle fill="#B05C2F" cx="165" cy="165" r="165"/>
<path fill="#FFFFFF" d="M163.174,161.458c64.472,48.213,83.533-49.335,146.323-16.259c0,0-28.592-69.518-93.063-71.2
	c-64.472-1.681-74.563,56.623-58.305,79.609c0,0-14.576,28.592-17.94,55.502c0,0-6.728-25.229-13.454-29.713
	c0,0,16.818-21.865-6.168-46.532c-22.985-24.667-66.152-22.425-96.986-1.682c0,0,26.349-2.242,40.363,39.804
	c9.086,27.255,49.336,31.956,57.745,16.258c0,0,14.576,30.834,6.167,78.488c8.97,19.621,26.909,7.287,27.47-1.121
	C147.477,184.443,163.174,161.458,163.174,161.458z"/>
<path fill="#B05C2F" d="M157.999,153.334c0,0,45.667-63,99.667-38.667c0,0-49.333-36.668-104.333,30.332
	S157.999,153.334,157.999,153.334z"/>
</svg>
