<?xml version="1.0" encoding="utf-8"?>
<!-- Generator: Adobe Illustrator 18.0.0, SVG Export Plug-In . SVG Version: 6.00 Build 0)  -->
<!DOCTYPE svg PUBLIC "-//W3C//DTD SVG 1.1//EN" "http://www.w3.org/Graphics/SVG/1.1/DTD/svg11.dtd">
<svg version="1.1" id="Layer_1" xmlns="http://www.w3.org/2000/svg" xmlns:xlink="http://www.w3.org/1999/xlink" x="0px" y="0px"
	 viewBox="0 0 330 330" enable-background="new 0 0 330 330" xml:space="preserve">
<path fill="#B05C2F" d="M165,0C73.9,0,0,73.9,0,165s73.9,165,165,165s165-73.9,165-165S256.1,0,165,0z M163.2,161.5
	c0,0-15.7,23-7.8,103.2c-0.6,8.4-18.5,20.7-27.5,1.1c8.4-47.7-6.2-78.5-6.2-78.5c-8.4,15.7-48.7,11-57.7-16.3
	c-14-42-40.4-39.8-40.4-39.8c30.8-20.7,74-23,97,1.7c23,24.7,6.2,46.5,6.2,46.5c6.7,4.5,13.5,29.7,13.5,29.7
	c3.4-26.9,17.9-55.5,17.9-55.5c-0.1-0.1-0.1-0.2-0.2-0.2c0,0,0,0,0,0s45.7-63,99.7-38.7c0,0-49.1-36.5-104,29.9
	c-8.8-26.4,5.6-72.1,62.8-70.6c64.5,1.7,93.1,71.2,93.1,71.2C246.7,112.1,227.6,209.7,163.2,161.5z"/>
</svg>
