<?xml version="1.0" encoding="utf-8"?>
<!-- Generator: Adobe Illustrator 18.0.0, SVG Export Plug-In . SVG Version: 6.00 Build 0)  -->
<!DOCTYPE svg PUBLIC "-//W3C//DTD SVG 1.1//EN" "http://www.w3.org/Graphics/SVG/1.1/DTD/svg11.dtd">
<svg version="1.1" id="Layer_1" xmlns="http://www.w3.org/2000/svg" xmlns:xlink="http://www.w3.org/1999/xlink" x="0px" y="0px"
	 viewBox="0 0 451 451" enable-background="new 0 0 451 451" xml:space="preserve">
<path fill="#3B6E8F" d="M220.9,34.2c0-12.2-9.9-22.1-22.1-22.1c-12.2,0-22.1,9.9-22.1,22.1c0,12.2,9.9,22.1,22.1,22.1
	C210.9,56.3,220.9,46.4,220.9,34.2z M190.9,46.5l-4.6-4.6l7.7-7.7l-7.6-7.6l4.6-4.6l7.6,7.6l7.7-7.8l4.6,4.6l-7.7,7.8l7.9,7.9
	l-4.6,4.6l-7.9-7.9L190.9,46.5z M232.4,129.4c11.2,0,20.4-9.1,20.4-20.4s-9.1-20.4-20.4-20.4S212,97.8,212,109
	S221.2,129.4,232.4,129.4z M232.4,95.6c7.4,0,13.4,6,13.4,13.4s-6,13.4-13.4,13.4c-7.4,0-13.4-6-13.4-13.4S225,95.6,232.4,95.6z
	 M314.5,290.4c-3.3-5.7-10.7-9.9-17.2-9.9h-73.6c0.8,2.2,1.2,4.7,1.2,7.2c0,12-9.8,21.8-21.8,21.8c-12,0-21.8-9.8-21.8-21.8
	c0-2.5,0.4-4.9,1.2-7.2h-29c-6.5,0-13.9,4.3-17.2,9.9L64.6,414.8c-2.1,3.7-2.3,7.7-0.5,10.9c1.8,3.2,5.4,5,9.7,5h303.4
	c4.3,0,7.8-1.8,9.7-5c1.8-3.2,1.7-7.2-0.5-10.9L314.5,290.4z M237.8,306.8c2.3-1.2,4.8-1.8,7.3-1.8c6.1,0,11.7,3.4,14.5,8.9
	c2,3.9,2.3,8.3,1,12.4s-4.2,7.5-8.1,9.4c-2.3,1.2-4.8,1.8-7.3,1.8c-6.1,0-11.7-3.4-14.5-8.9C226.6,320.6,229.8,310.9,237.8,306.8z
	 M232.8,375.8c-2.3,1.2-4.8,1.8-7.3,1.8c-6.1,0-11.7-3.4-14.5-8.9c-2-3.9-2.3-8.3-1-12.4c1.3-4.1,4.2-7.5,8.1-9.4
	c2.3-1.2,4.8-1.8,7.3-1.8c6.1,0,11.7,3.4,14.5,8.9c2,3.9,2.3,8.3,1,12.4C239.6,370.5,236.7,373.8,232.8,375.8z M249.3,406.7
	c-6,0-10.8-4.9-10.8-10.8c0-6,4.9-10.8,10.8-10.8s10.8,4.9,10.8,10.8C260.1,401.8,255.2,406.7,249.3,406.7z M275.6,371.8
	c-8.9,0-16.2-7.3-16.2-16.2c0-8.9,7.3-16.2,16.2-16.2c8.9,0,16.2,7.3,16.2,16.2C291.8,364.5,284.5,371.8,275.6,371.8z M400,398.4
	L282.5,194.9c-1-3.7-2.4-24.1-2.5-52.6v-1.4c0-27.3,6.2-42.1,9.1-44c11.2-0.2,20.3-8,20.3-17.5c0-6.6-7-10.7-16.2-13.2
	c0.5-2.1,0.8-4.4,0.8-6.6c0-15.1-12.3-27.4-27.4-27.4s-27.4,12.3-27.4,27.4c0,0.8,0,1.6,0.1,2.4h-21.1c8.7-6.2,14.4-16.3,14.4-27.7
	c0-18.7-15.2-33.9-33.9-33.9s-33.9,15.2-33.9,33.9c0,11.8,6.1,22.3,15.3,28.3c-15.5,1.2-30.8,4.3-36.6,10.1c-2.5,2.5-3,5.1-3,6.9
	c0.1,9.5,9.5,17.3,21,17.4c3.4,2,9.4,18.4,9.4,44v1.4c0,28.6-1.4,48.9-2.5,52.6c-2.3,4-14.5,25.2-27.8,48.2L51,398.4
	c-10.5,18.2-6.4,30.7-3,36.6c3.4,5.9,12.2,15.7,33.2,15.7h288.6c21,0,29.8-9.8,33.2-15.7S410.5,416.6,400,398.4z M266.7,38.1
	c11.8,0,21.4,9.6,21.4,21.4c0,1.8-0.3,3.6-0.7,5.2c-12.6-2.5-27.2-2.9-34-2.9h-8c-0.1-0.8-0.1-1.6-0.1-2.4
	C245.3,47.7,254.9,38.1,266.7,38.1z M280.5,75.8c-3.7,3.2-8.5,5.1-13.8,5.1c-6.2,0-11.9-2.7-15.8-7h2.5
	C264.3,73.9,273.4,74.7,280.5,75.8z M171.8,34.2c0-14.9,12.1-26.9,26.9-26.9s26.9,12.1,26.9,26.9s-12.1,26.9-26.9,26.9
	S171.8,49.1,171.8,34.2z M392.6,429c-3.6,6.3-11.7,9.7-22.8,9.7H81.2c-11.1,0-19.2-3.5-22.8-9.7c-3.6-6.3-2.6-15,3-24.6L151,249.1
	c13.8-23.8,26.4-45.7,28-48.6c3.7-6.3,3.9-49.6,3.9-58.3v-1.4c0-13.9-1.7-27-4.7-37.1c-3.8-12.6-9.3-19-16.4-19
	c-4.5,0-8.1-2.2-9-4.4c3.9-2.5,19.2-6.6,43.6-6.6h47c4.8,7.8,13.5,13,23.3,13c8.4,0,15.9-3.8,20.9-9.7c4.8,1.1,8.1,2.3,9.6,3.3
	c-0.9,2.2-4.2,4.4-8.5,4.4c-7,0-12.4,6.4-16.1,19c-2.9,10-4.5,23.1-4.5,37v1.4c0,8.6,0.2,51.9,3.9,58.3l117.7,203.9
	C395.2,414,396.2,422.7,392.6,429z M286.8,355.6c0,6.2-5,11.2-11.2,11.2c-6.2,0-11.2-5-11.2-11.2s5-11.2,11.2-11.2
	C281.8,344.4,286.8,349.4,286.8,355.6z M187.5,288c0-8.7,7.1-15.8,15.8-15.8S219,279.3,219,288s-7.1,15.8-15.8,15.8
	C194.5,303.8,187.5,296.7,187.5,288z M235.1,326.3c-2.8-5.5-0.6-12.3,4.9-15.1c1.6-0.8,3.3-1.2,5.1-1.2c4.3,0,8.1,2.4,10,6.1
	c1.4,2.7,1.6,5.7,0.7,8.6c-0.9,2.8-2.9,5.2-5.6,6.5c-1.6,0.8-3.3,1.2-5.1,1.2C240.9,332.5,237.1,330.1,235.1,326.3z M235.5,356.3
	c1.4,2.7,1.6,5.7,0.7,8.6c-0.9,2.8-2.9,5.2-5.6,6.5c-1.6,0.8-3.3,1.2-5.1,1.2c-4.3,0-8.1-2.4-10-6.1c-1.4-2.7-1.6-5.7-0.7-8.6
	c0.9-2.8,2.9-5.2,5.6-6.5c1.6-0.8,3.3-1.2,5.1-1.2C229.7,350.1,233.6,352.5,235.5,356.3z M256.1,395.8c0,3.8-3.1,6.8-6.8,6.8
	c-3.8,0-6.8-3.1-6.8-6.8c0-3.8,3.1-6.8,6.8-6.8S256.1,392,256.1,395.8z"/>
</svg>
