<?xml version="1.0" encoding="utf-8"?>
<!-- Generator: Adobe Illustrator 18.0.0, SVG Export Plug-In . SVG Version: 6.00 Build 0)  -->
<!DOCTYPE svg PUBLIC "-//W3C//DTD SVG 1.1//EN" "http://www.w3.org/Graphics/SVG/1.1/DTD/svg11.dtd">
<svg version="1.1" id="Layer_1" xmlns="http://www.w3.org/2000/svg" xmlns:xlink="http://www.w3.org/1999/xlink" x="0px" y="0px"
	 viewBox="0 0 577 83" enable-background="new 0 0 577 83" xml:space="preserve">
<path fill="#888A8C" d="M571,49.9c-7.2-5.2-16.3-6-24.7-8.1c-2.5-0.8-5.5-1.4-6.8-3.9c0-4.3,5.2-5,8.4-4.4c3,0.3,4.3,3.4,5.7,5.6
	c7.1,0.1,14.3,0.1,21.4,0c-1-4.7-2.5-9.7-6.5-12.7c-7.4-5.9-17.5-6.4-26.6-6.1c-9.8,0.4-20.8,4.3-24.6,14.1
	c0.4-11.5-0.1-23,0.3-34.5h-23.9c0,9.2-0.1,18.3,0.1,27.5c-8.6-9.4-25-9.7-33.8-0.4c-4.4,4.3-6.8,10.1-8.2,15.9
	c-0.2-6.2-0.8-13.4-6.3-17.4c-7.1-5-16.2-5.1-24.5-5.3c-9,0.3-18.8,0.8-26.1,6.6c-4,3.1-4.8,8.3-6.5,12.8
	c-2.9-9.1-11.2-15.7-20.3-17.9c-13.6-3.5-29.8-1.2-39.3,9.9c0-3.8,0-7.5,0-11.3c-4.5-0.1-9.2-0.1-13.2,2.3
	c-4.1,2.3-6.3,6.6-8.4,10.6c0.1-3.8,0.1-7.5,0.1-11.3c-7.3,0-14.5,0-21.8,0c0,10.7-0.1,21.4,0.1,32.1c-7.2-8.9-19.1-9.7-29.4-12.3
	c-2.6-0.9-7.1-1.8-6.1-5.5c1.7-3.1,5.8-3.1,8.8-2.4c2.7,0.5,3.7,3.4,5,5.4c7.1,0.1,14.3,0,21.4,0c-1-5-2.7-10.3-7.2-13.3
	c-8.1-5.7-18.7-6-28.2-5.3c-8.4,0.9-18.4,4.2-21.6,12.8c-0.7,5.2-2,11.2,1.4,15.7c3.6,5,9.9,7,15.7,8.4c5.3,1.4,10.9,1.7,15.8,4.1
	c2.6,1,2.9,4.9,0.8,6.5c-2.8,2.3-7,2.2-10.2,0.8c-2.6-1-3.4-4-4.5-6.3c-5.9-0.1-11.8,0-17.7,0c-0.6-4.2-1.5-8.8-5-11.6
	c-8-7-19.2-7-28.8-10.2c-1.9-0.7-5.1-2.2-3.8-4.7c1.4-3.2,5.8-3.2,8.7-2.5c2.7,0.6,3.7,3.4,5.1,5.4c6.1,0,12.2,0,18.3,0.2
	c1.5,0.7,2.4-0.8,2.6-2C226,29.9,220,24,212.8,22.2c-11-2.9-23.4-3-33.8,2c-5.8,2.7-9.3,8.5-9.9,14.8c-3.2-8.1-10.2-14.3-18.5-16.7
	c-14.1-4.3-31.3-2.1-41.3,9.6c0.1-3.8,0.1-7.7,0.1-11.5c-4.4-0.1-9-0.1-12.9,2.3c-4.4,2.3-6.7,7-8.6,11.3c0.1-4,0.1-8,0-12
	c-7.2,0-14.3,0-21.5,0c0,7.1-0.1,14.2,0.2,21.2c-1.4-6.5-4.5-12.9-10.1-16.7c-7.7-5.4-17.5-6.8-26.6-6.1
	c-8.8,0.7-17.7,4.2-23.3,11.2C2.8,36.1,1,41.8,0,47.5v8.9c0.8,6.5,3.3,12.9,8.1,17.4c5.2,5.4,12.5,7.8,19.6,9.2h11.5
	c5.7-0.7,11.5-2.1,16.4-5.3c5.8-3.5,9.1-9.6,11-15.8c-0.2,6.5-0.1,13.1-0.1,19.6c7.9,0,15.8,0.1,23.8,0c0-7.2-0.1-14.3,0-21.5
	c0.2-4.5,0.7-9.4,3.9-12.8c2.6-2.7,6.5-3.1,10-3.8c-1.3,8.7-1.2,18.2,3.7,25.8C113,77.8,123,82,132.5,83h9.8
	c10.4-0.9,20.8-6.3,25.7-15.9c1.4,3.1,2.7,6.3,5.2,8.6c5.2,4.8,12.4,6.6,19.2,7.2h11c9-0.8,19-3.5,24.1-11.7
	c4.5,7.4,13,10.5,21.2,11.7h13.9c8.7-1.1,18.1-4,23.1-11.9c-0.1,3.5-0.1,6.9-0.1,10.4c7.9,0,15.9,0,23.8,0c0.5-10-1.3-20.2,1.4-30
	c1.6-5.5,7.5-7.6,12.6-8.1c-1.3,8.9-1.2,18.7,4,26.4c5.2,8.2,14.9,12.2,24.2,13.2h9.8c9.6-0.9,19.1-5.4,24.5-13.7
	c1.2,2.9,2.3,6,4.7,8.1c3.2,3.2,7.7,4.6,12,5.5h10.2c6.1-0.8,11.7-3.6,16.6-7.3c0.3,1.9,0.7,3.9,1.1,5.8c8.3,0,16.6,0,25,0
	c-1.5-2.4-3.5-4.7-3.5-7.6c-0.2-4,0-7.9-0.1-11.9c1.4,4.4,2.9,8.9,6,12.4c3.7,4.7,9.4,7.2,15.1,8.6h8.9c5.9-0.7,10.7-4.5,14.4-8.9
	c0,2.5,0,4.9,0,7.4c7.2,0,14.3,0,21.5,0c0-3.2,0-6.3-0.1-9.5c5.2,7,13.7,10.3,22.1,11h11c7-0.7,14.3-2.1,20-6.5
	c3.5-2.6,5.5-6.6,6.5-10.8v-6.3C576.1,55.7,574.2,52.1,571,49.9z M66.5,58.3c-7.7,0-15.5,0-23.2,0c-0.8,2.1-1.4,4.3-2.8,6.1
	c-3.7,4.2-11.5,3.3-14.3-1.5c-2-3.2-2.4-7.2-2.5-10.9c0.1-4.2,0.5-8.7,3.1-12.3c3.1-4.4,10.5-4.6,13.8-0.3c1.1,1.6,1.5,3.5,2.1,5.3
	c8,0,15.9,0,23.8,0C66.5,49.2,66.5,53.8,66.5,58.3z M144.5,63.6c-3.1,4.6-10.9,4.7-14.1,0.1c-3.2-4.5-3.4-10.4-2.9-15.7
	c0.6-4.7,2.8-10.3,8-11.3c2.5-0.6,5.4-0.2,7.4,1.6c3.6,3.2,4.5,8.2,4.7,12.8C147.4,55.3,147.1,59.9,144.5,63.6z M194.9,69.4
	c-3.1-0.8-4.4-3.8-5.1-6.6c-6.7-0.1-13.4,0-20.1,0c1.2-4.7,1.7-9.5,1.5-14.4c6.3,8.5,17.5,9.3,27,11.4c2.9,0.8,7.2,1.5,7.6,5.2
	C205.3,70,198.8,70.8,194.9,69.4z M366.5,52.9c-0.2,3.9-0.8,8.1-3.4,11.2c-3.5,4.3-11.3,3.8-14.1-1.2c-2.7-4.8-3.1-10.6-2.4-15.9
	c0.6-4.4,3-9.4,7.7-10.5c2.8-0.7,5.9-0.1,7.9,2C366,42.4,366.7,47.9,366.5,52.9z M390.3,52.7c0.1-4-0.1-8-1.7-11.7
	c7.7-0.8,15.4-0.3,23.1-0.4c1-2.1,2-4.6,4.5-5.2c3.5-0.9,8.1-1.1,10.9,1.7c1.7,1.9,0.7,4.8-1.4,5.8c-3.8,1.9-8.2,2-12.4,2.6
	C405.3,46.3,396.8,47.4,390.3,52.7z M425.8,65.7c-2.9,4.2-9,4.9-13.3,2.7c-2.3-1.2-2.9-4.3-1.6-6.4c1.3-2.2,3.9-2.9,6.1-3.5
	c3.8-0.9,7.5-1.7,11.2-3C427.9,58.9,427.9,62.7,425.8,65.7z M492.7,60.7c-2.5,5.7-11.7,7.3-15.5,2c-2.6-3.6-2.7-8.4-2.4-12.7
	c0.3-4.2,2-9.2,6.4-10.7c4.1-1.6,9.3,0,11.3,4.1C495.2,48.7,495.2,55.4,492.7,60.7z M551.5,68.5c-3,2-7.1,2-10.2,0.3
	c-2.4-1.2-3.1-3.9-4-6.1c-6.6,0.1-13.2,0-19.8,0c0-5.8,0.1-11.5-0.1-17.3c2.8,6.8,9.8,10.4,16.7,11.8c5.7,1.6,11.8,1.8,17.1,4.5
	C554,63,553.9,67,551.5,68.5z"/>
</svg>
