<?xml version="1.0" encoding="utf-8"?>
<!-- Generator: Adobe Illustrator 18.0.0, SVG Export Plug-In . SVG Version: 6.00 Build 0)  -->
<!DOCTYPE svg PUBLIC "-//W3C//DTD SVG 1.1//EN" "http://www.w3.org/Graphics/SVG/1.1/DTD/svg11.dtd">
<svg version="1.1" id="Layer_1" xmlns="http://www.w3.org/2000/svg" xmlns:xlink="http://www.w3.org/1999/xlink" x="0px" y="0px"
	 viewBox="0 0 986 972.2" enable-background="new 0 0 986 972.2" xml:space="preserve">
<path fill="#B05C2F" d="M493,2.5C221.8,2.5,1.9,218.9,1.9,486S221.8,969.5,493,969.5S984.1,753,984.1,486S764.2,2.5,493,2.5z
	 M781.5,770.4c-37.1,37.1-80.4,66.3-128.6,86.7C603,878.2,550,888.9,495.4,888.9c-54.6,0-107.6-10.7-157.5-31.8
	c-48.2-20.4-91.4-49.5-128.6-86.7c-37.1-37.1-66.3-80.4-86.7-128.6C101.6,591.9,90.9,539,90.9,484.4c0-54.6,10.7-107.6,31.8-157.5
	c20.4-48.2,49.5-91.4,86.7-128.6c37.1-37.1,80.4-66.3,128.6-86.7c49.9-21.1,102.9-31.8,157.5-31.8c54.6,0,107.6,10.7,157.5,31.8
	c48.2,20.4,91.4,49.5,128.6,86.7s66.3,80.4,86.7,128.6c21.1,49.9,31.8,102.9,31.8,157.5c0,54.6-10.7,107.6-31.8,157.5
	C847.8,690,818.6,733.2,781.5,770.4z M750.4,229.4c-68.1-68.1-158.6-105.6-255-105.6s-186.9,37.5-255,105.6
	c-68.1,68.1-105.6,158.6-105.6,255s37.5,186.9,105.6,255c68.1,68.1,158.6,105.6,255,105.6s186.9-37.5,255-105.6
	c68.1-68.1,105.6-158.6,105.6-255S818.5,297.5,750.4,229.4z M401.7,696.9l-0.6-442.5l291,219.3L401.7,696.9z"/>
</svg>
