<?xml version="1.0" encoding="utf-8"?>
<!-- Generator: Adobe Illustrator 18.0.0, SVG Export Plug-In . SVG Version: 6.00 Build 0)  -->
<!DOCTYPE svg PUBLIC "-//W3C//DTD SVG 1.1//EN" "http://www.w3.org/Graphics/SVG/1.1/DTD/svg11.dtd">
<svg version="1.1" id="Layer_1" xmlns="http://www.w3.org/2000/svg" xmlns:xlink="http://www.w3.org/1999/xlink" x="0px" y="0px"
	 viewBox="0 0 612 792" enable-background="new 0 0 612 792" xml:space="preserve">
<path fill="#B15D2F" d="M305.9,155.5c168.9,0,305.9,137,305.9,305.9s-137,305.9-305.9,305.9S0,630.4,0,461.4S137,155.5,305.9,155.5z
	 M271.4,557.5c0.2-28.2,2.6-47.8,7.3-58.8c4.7-10.9,16.9-25.3,36.8-43.2c19.3-22.8,33-40.3,41.1-52.5c8.2-12.2,12.2-27,12.2-44.4
	c0-20.6-5.5-36.5-16.5-47.6c-11-11.1-26.7-16.7-47.2-16.7c-17.7,0-32.9,4.8-45.3,14.5c-12.4,9.6-18.7,23.8-18.7,42.5h-54.9l-0.9-1.7
	c-0.6-31.4,10.5-56.5,33.1-75.3c22.7-18.9,51.6-28.3,86.6-28.3c38.3,0,68.2,9.8,89.4,29.4c21.2,19.6,31.8,46.9,31.8,81.9
	c0,25.1-6.9,48.1-20.6,68.9c-13.7,20.8-31.9,42.2-54.5,63.9c-10.5,10.5-16.9,20-19.1,28.3c-2.3,8.4-3.4,21.5-3.4,39.2H271.4z
	 M331,677.2h-60.2v-60.7H331V677.2z"/>
</svg>
