<?xml version="1.0" encoding="utf-8"?>
<!-- Generator: Adobe Illustrator 18.0.0, SVG Export Plug-In . SVG Version: 6.00 Build 0)  -->
<!DOCTYPE svg PUBLIC "-//W3C//DTD SVG 1.1//EN" "http://www.w3.org/Graphics/SVG/1.1/DTD/svg11.dtd">
<svg version="1.1" id="Layer_1" xmlns="http://www.w3.org/2000/svg" xmlns:xlink="http://www.w3.org/1999/xlink" x="0px" y="0px"
	 viewBox="0 236.5 864 873.5" enable-background="new 0 236.5 864 873.5" xml:space="preserve">
<g>
	<path fill="#B15D2F" d="M432,241.4C193.5,241.4,0.1,434.6,0.1,673.2s193.4,431.9,431.9,431.9s431.9-193.4,431.9-431.9
		S670.4,241.4,432,241.4z M467.4,977.9h-85v-85.7h85V977.9z M572.7,623.5c-19.3,29.4-45,59.6-76.9,90.2c-14.8,14.8-23.9,28.2-27,40
		c-3.2,11.9-4.8,30.4-4.8,55.3h-80.8v-0.1c0.3-39.8,3.7-67.5,10.3-83c6.6-15.4,23.9-35.7,52-61c27.2-32.2,46.6-56.9,58-74.1
		c11.6-17.2,17.2-38.1,17.2-62.7c0-29.1-7.8-51.5-23.3-67.2c-15.5-15.7-37.7-23.6-66.6-23.6c-25,0-46.4,6.8-64,20.5
		c-17.5,13.6-26.4,33.6-26.4,60h-77.5l-1.3-2.4c-0.8-44.3,14.8-79.8,46.7-106.3c32-26.7,72.8-40,122.3-40
		c54.1,0,96.3,13.8,126.2,41.5s44.9,66.2,44.9,115.6C601.8,561.7,592.1,594.2,572.7,623.5z"/>
</g>
</svg>
