<?xml version="1.0" encoding="utf-8"?>
<!-- Generator: Adobe Illustrator 17.1.0, SVG Export Plug-In . SVG Version: 6.00 Build 0)  -->
<!DOCTYPE svg PUBLIC "-//W3C//DTD SVG 1.1//EN" "http://www.w3.org/Graphics/SVG/1.1/DTD/svg11.dtd">
<svg version="1.1" id="Layer_1" xmlns="http://www.w3.org/2000/svg" xmlns:xlink="http://www.w3.org/1999/xlink" x="0px" y="0px"
	 viewBox="0 66 650 661" enable-background="new 0 66 650 661" xml:space="preserve">
<circle fill="#B15D2F" cx="324.9" cy="395.9" r="324.9"/>
<g enable-background="new    ">
	<path fill="#FFFFFF" d="M288.3,497.9c0.2-30,2.8-50.8,7.8-62.4c5-11.6,18-26.9,39.1-45.9c20.5-24.2,35.1-42.8,43.7-55.8
		c8.7-13,13-28.7,13-47.2c0-21.9-5.8-38.8-17.5-50.6c-11.7-11.8-28.4-17.7-50.1-17.7c-18.8,0-34.9,5.1-48.1,15.4
		c-13.2,10.2-19.9,25.3-19.9,45.1H198L197,277c-0.6-33.3,11.1-60,35.2-80c24.1-20.1,54.8-30.1,92-30.1c40.7,0,72.4,10.4,94.9,31.2
		c22.5,20.8,33.8,49.8,33.8,87c0,26.7-7.3,51.1-21.9,73.2c-14.6,22.1-33.9,44.8-57.9,67.9c-11.2,11.2-17.9,21.2-20.3,30.1
		c-2.4,8.9-3.6,22.8-3.6,41.6H288.3z M351.5,625.1h-63.9v-64.5h63.9V625.1z"/>
</g>
</svg>
