<?xml version="1.0" encoding="utf-8"?>
<!-- Generator: Adobe Illustrator 18.0.0, SVG Export Plug-In . SVG Version: 6.00 Build 0)  -->
<!DOCTYPE svg PUBLIC "-//W3C//DTD SVG 1.1//EN" "http://www.w3.org/Graphics/SVG/1.1/DTD/svg11.dtd">
<svg version="1.1" id="Layer_1" xmlns="http://www.w3.org/2000/svg" xmlns:xlink="http://www.w3.org/1999/xlink" x="0px" y="0px"
	 viewBox="0 0 612 792" enable-background="new 0 0 612 792" xml:space="preserve">
<path fill="#969492" d="M593.4,577.4L440.2,444c-7.4-6.6-16.4-10.5-25.6-11.7c12.6-26.5,19.6-56,19.6-87.2c0-112.5-91.5-204-204-204
	s-204,91.5-204,204c0,112.5,91.5,204,204,204c44.9,0,86.5-14.6,120.3-39.3c2.7,7.8,7.4,14.9,14,20.7l153.2,133.5
	c20.1,17.8,51.6,15.9,69.4-4.6l11-12.5C615.8,626.7,613.9,595.3,593.4,577.4z M42.1,345c0-103.7,84.4-188,188-188s188,84.4,188,188
	c0,31.8-8,61.9-22,88.2c-9.5,2.3-18.5,7.4-25.4,15.3l-11,12.5c-7.8,8.7-11.8,19.6-12.2,30.6c-32.2,25.9-73.1,41.4-117.5,41.4
	C126.5,533,42.1,448.7,42.1,345z"/>
</svg>
