<?xml version="1.0" encoding="utf-8"?>
<!-- Generator: Adobe Illustrator 17.1.0, SVG Export Plug-In . SVG Version: 6.00 Build 0)  -->
<!DOCTYPE svg PUBLIC "-//W3C//DTD SVG 1.1//EN" "http://www.w3.org/Graphics/SVG/1.1/DTD/svg11.dtd">
<svg version="1.1" id="Layer_1" xmlns="http://www.w3.org/2000/svg" xmlns:xlink="http://www.w3.org/1999/xlink" x="0px" y="0px"
	 viewBox="0 0 650 792" enable-background="new 0 0 650 792" xml:space="preserve">
<path fill="#366E8E" d="M392.7,490.8v-40.6c27.1-21.7,46-51.5,56.9-89.4c2.7,13.5,32.5-10.8,32.5-51.5c0-89.4-27.1-70.4-29.8-70.4
	c-5.4-65-35.2-113.8-127.3-113.8c-89.4,0-119.2,46-130,113.8l0,0c-13.5,0-27.1,32.5-27.1,73.1s29.8,65,32.5,56.9
	c10.8,32.5,27.1,59.6,48.8,78.5v46c-113.8,19-200.4,89.4-200.4,173.3h552.5C601.3,580.2,511.9,509.8,392.7,490.8z"/>
</svg>
