<?xml version="1.0" encoding="utf-8"?>
<!-- Generator: Adobe Illustrator 17.1.0, SVG Export Plug-In . SVG Version: 6.00 Build 0)  -->
<!DOCTYPE svg PUBLIC "-//W3C//DTD SVG 1.1//EN" "http://www.w3.org/Graphics/SVG/1.1/DTD/svg11.dtd">
<svg version="1.1" id="Layer_1" xmlns="http://www.w3.org/2000/svg" xmlns:xlink="http://www.w3.org/1999/xlink" x="0px" y="0px"
	 viewBox="0 0 24 24" enable-background="new 0 0 24 24" xml:space="preserve">
<path fill="none" stroke="#366E8E" stroke-width="1.1861" stroke-linejoin="round" stroke-miterlimit="10" d="M14.5,15.5V14
	c1-0.8,1.7-1.9,2.1-3.3c0.1,0.5,1.2-0.4,1.2-1.9c0-3.3-1-2.6-1.1-2.6C16.5,3.8,15.4,2,12,2C8.7,2,7.6,3.7,7.2,6.2c0,0,0,0,0,0
	c-0.5,0-1,1.2-1,2.7c0,1.5,1.1,2.4,1.2,2.1c0.4,1.2,1,2.2,1.8,2.9v1.7C5,16.3,1.8,18.9,1.8,22h20.4C22.2,18.8,18.9,16.2,14.5,15.5z"
	/>
</svg>
