<?xml version="1.0" encoding="utf-8"?>
<!-- Generator: Adobe Illustrator 18.0.0, SVG Export Plug-In . SVG Version: 6.00 Build 0)  -->
<!DOCTYPE svg PUBLIC "-//W3C//DTD SVG 1.1//EN" "http://www.w3.org/Graphics/SVG/1.1/DTD/svg11.dtd">
<svg version="1.1" id="Layer_1" xmlns="http://www.w3.org/2000/svg" xmlns:xlink="http://www.w3.org/1999/xlink" x="0px" y="0px"
	 viewBox="0 0 612 792" enable-background="new 0 0 612 792" xml:space="preserve">
<path fill="#AF5E31" d="M566.1,668.5H45.9c-9.7,0-17.5-7.8-17.5-17.5c0-43,21.4-84.8,60.4-117.9c33.4-28.3,78.5-49.3,128.3-59.8
	v-21.2c-17.1-16.8-30.9-38.7-41.1-65.3c-17.8-8.7-35.4-37.3-35.4-69.9c0-34.2,9.4-68.7,27.4-81.3c6.7-34.4,18.5-59.2,36.7-77.4
	c23.4-23.4,56.5-34.8,101.3-34.8c45.4,0,80.1,12.1,103.1,35.9c16.9,17.5,27.5,40.7,32.2,70.8c7.1,2.1,15.4,7.7,21.3,21
	c5.9,13.5,8.8,34.2,8.8,63.1c0,33.9-17.9,61.3-36,67.9c-10.6,29.4-26.8,53.8-48.1,72.8v15.5c52.3,10.5,99.4,31.6,133.9,60.1
	c19.6,16.2,34.9,34.4,45.5,54.2c11.3,21,17,43.2,17,66.1C583.6,660.7,575.8,668.5,566.1,668.5z M65,633.5H547
	c-3.9-22-16.2-49.4-48.2-75.8c-33-27.3-79.8-46.9-131.8-55.2c-8.5-1.4-14.8-8.7-14.8-17.3V447c0-5.3,2.4-10.3,6.6-13.7
	c22.5-18,38.5-43.3,47.7-75.3c2.2-7.8,9.5-13,17.5-12.7c0.9,0,1.9,0.2,2.8,0.3c4.2-5.6,9.6-16.4,9.6-31.3c0-31.9-3.8-44.7-6-49.4
	c-1.3,0.3-2.8,0.6-4.6,0.6c-9.1,0-16.7-7-17.4-16c-2.5-29.8-10.5-51.3-24.5-65.8c-16.4-17-41.9-25.3-77.9-25.3
	c-75,0-96.2,36.9-105.1,92.4c-1.2,7.3-6.7,12.9-13.7,14.4c-3.7,4.5-11.6,22.2-11.6,51.7c0,18,8.1,30.7,13,36.1c0,0,0.1,0,0.1,0
	c7.5,0,14.2,4.8,16.6,12c9.6,28.7,23.3,51,40.8,66.3c3.8,3.3,6,8.1,6,13.2v43.3c0,8.6-6.2,15.9-14.6,17.3
	c-49.4,8.2-94.2,27.7-126.1,54.7C80.8,585.8,68.9,612.2,65,633.5z"/>
</svg>
